<?xml version="1.0" standalone="no"?>
<!DOCTYPE svg PUBLIC "-//W3C//DTD SVG 20010904//EN"
 "http://www.w3.org/TR/2001/REC-SVG-20010904/DTD/svg10.dtd">
<svg version="1.0" xmlns="http://www.w3.org/2000/svg"
 width="1024.000000pt" height="1024.000000pt" viewBox="0 0 1024.000000 1024.000000"
 preserveAspectRatio="xMidYMid meet">
<metadata>
Created by potrace 1.14, written by Peter Selinger 2001-2017
</metadata>
<g transform="translate(0.000000,1024.000000) scale(0.100000,-0.100000)"
fill="#000000" stroke="none">
<path d="M2376 9808 c4 -13 1 -16 -15 -13 -12 2 -25 6 -30 10 -5 3 -13 0 -17
-6 -4 -8 -9 -7 -15 2 -7 11 -9 11 -9 1 0 -8 -5 -10 -12 -6 -16 10 -58 12 -52
2 6 -9 -26 -6 -43 5 -6 4 -13 2 -15 -5 -3 -7 -9 -8 -19 -2 -19 12 -31 12 -46
2 -6 -5 -14 -5 -18 2 -3 6 -12 7 -18 3 -22 -14 -49 -14 -41 -1 5 8 1 8 -10 -1
-15 -13 -19 -13 -27 0 -5 8 -9 9 -9 4 0 -6 -18 -11 -40 -11 -26 -1 -37 3 -33
10 5 8 3 8 -8 0 -20 -15 -60 -15 -78 -1 -10 8 -13 8 -8 1 5 -8 -14 -12 -66
-12 -39 0 -76 -1 -82 -2 -21 -5 -36 1 -29 12 4 7 3 8 -5 4 -6 -4 -9 -11 -6
-16 3 -5 -11 -7 -32 -5 -21 2 -46 -1 -56 -7 -15 -8 -18 -7 -11 4 6 10 5 11 -8
1 -8 -7 -18 -10 -21 -6 -4 3 -7 1 -7 -4 0 -6 -11 -10 -25 -8 -14 1 -28 -2 -31
-7 -3 -5 -12 -4 -20 3 -12 10 -13 9 -7 -7 6 -17 5 -18 -12 -4 -10 8 -16 10
-12 3 5 -7 -1 -17 -14 -23 -17 -10 -20 -9 -13 2 6 11 5 11 -9 -1 -9 -7 -17
-10 -17 -7 0 4 -7 0 -16 -8 -8 -9 -27 -19 -42 -23 -15 -3 -33 -12 -40 -20 -8
-7 -18 -10 -24 -7 -7 5 -8 2 -3 -6 6 -10 4 -12 -9 -7 -10 4 -15 3 -11 -3 4 -6
-7 -15 -24 -21 -17 -6 -28 -15 -25 -20 3 -5 -3 -12 -13 -16 -10 -3 -28 -17
-41 -31 -12 -14 -22 -21 -22 -16 0 5 -8 -3 -18 -19 -10 -15 -20 -26 -23 -24
-2 2 -14 -7 -26 -20 -12 -13 -20 -23 -17 -23 2 0 -10 -14 -28 -32 -18 -18 -32
-36 -31 -40 2 -4 -5 -8 -14 -8 -9 0 -13 -3 -10 -7 4 -3 -5 -16 -18 -29 -14
-13 -25 -28 -25 -34 0 -5 -4 -10 -10 -10 -5 0 -9 -6 -7 -12 1 -7 -3 -12 -10
-11 -8 2 -10 -4 -6 -14 4 -11 3 -14 -5 -9 -8 4 -10 2 -6 -7 3 -8 -2 -17 -10
-20 -9 -4 -16 -13 -16 -22 0 -8 -4 -15 -9 -15 -5 0 -8 -8 -6 -17 1 -10 -6 -30
-17 -45 -11 -16 -16 -32 -13 -38 3 -5 2 -10 -4 -10 -6 0 -8 -7 -5 -15 4 -8 1
-15 -7 -15 -7 0 -9 -3 -6 -7 4 -3 -1 -12 -11 -20 -9 -8 -11 -12 -4 -8 14 7 17
-11 2 -20 -6 -3 -8 -17 -6 -31 3 -13 -2 -30 -10 -39 -12 -12 -12 -15 -2 -15 8
0 9 -3 2 -8 -5 -4 -10 -22 -9 -39 0 -18 -2 -33 -5 -33 -3 0 -4 -28 -3 -62 1
-39 -3 -66 -10 -70 -7 -5 -8 -8 -2 -8 15 0 17 -50 2 -50 -8 0 -8 -3 -2 -8 14
-9 14 -105 0 -114 -7 -5 -6 -8 1 -8 12 0 13 -58 1 -77 -4 -6 -2 -15 4 -19 8
-4 7 -9 -2 -15 -10 -6 -11 -9 -1 -9 6 0 12 -5 12 -11 0 -5 -5 -7 -11 -3 -8 5
-8 1 0 -14 13 -25 14 -35 3 -28 -5 3 -9 -1 -9 -9 0 -8 4 -15 9 -15 5 0 6 -10
3 -21 -10 -31 -12 -79 -4 -73 9 5 6 -17 -4 -33 -5 -8 -3 -13 5 -13 9 0 9 -3
-2 -10 -13 -9 -13 -10 0 -10 13 0 13 -1 0 -10 -13 -9 -13 -10 0 -10 13 0 13
-1 0 -10 -8 -5 -10 -10 -5 -10 12 0 13 -105 2 -116 -4 -4 -1 -14 6 -22 9 -13
9 -14 0 -8 -8 4 -13 1 -13 -9 0 -9 4 -14 8 -11 5 3 9 -1 9 -9 0 -8 -4 -12 -9
-9 -4 3 -8 -2 -8 -11 0 -9 4 -14 8 -11 5 3 9 -1 9 -9 0 -8 -4 -12 -9 -9 -4 3
-8 -2 -8 -11 0 -9 4 -14 8 -11 5 3 9 -1 9 -9 0 -8 -4 -12 -9 -9 -4 3 -8 -2 -8
-11 0 -9 4 -14 8 -11 5 3 9 -1 9 -9 0 -8 -4 -12 -9 -9 -4 3 -8 1 -8 -5 0 -5 6
-12 13 -14 10 -4 10 -6 0 -6 -7 -1 -13 -10 -13 -22 0 -12 4 -17 11 -13 11 6 8
-10 -9 -55 -4 -10 -1 -12 9 -6 11 6 12 5 2 -6 -7 -7 -13 -17 -13 -22 0 -4 6
-5 13 -1 6 4 3 -3 -7 -15 -20 -22 -20 -22 0 -15 16 7 17 5 7 -7 -10 -12 -10
-18 -1 -27 9 -9 7 -17 -7 -32 -15 -16 -15 -19 -3 -15 12 5 15 0 13 -17 -2 -13
-7 -32 -11 -42 -5 -13 -4 -17 4 -12 8 5 10 2 6 -8 -3 -9 -10 -14 -14 -11 -5 3
-7 -3 -5 -12 2 -10 4 -22 4 -26 1 -5 5 -5 11 -2 6 3 7 -1 4 -9 -3 -9 -9 -14
-13 -11 -10 6 -7 -33 4 -42 4 -5 5 -2 1 5 -4 6 -2 12 4 12 7 0 9 -7 6 -16 -3
-9 -6 -18 -6 -20 0 -3 -4 -3 -9 0 -5 4 -8 -2 -6 -11 2 -10 4 -22 4 -26 1 -5 5
-5 11 -2 6 3 7 -1 4 -9 -3 -9 -9 -14 -13 -11 -12 7 -5 -83 8 -98 12 -16 4 -50
-10 -41 -5 3 -6 -2 -3 -10 3 -9 10 -13 15 -10 5 3 6 -2 3 -10 -3 -9 -9 -14
-13 -11 -11 6 -7 -42 3 -52 5 -5 6 -2 1 6 -6 10 -4 12 5 6 11 -7 10 -10 -1
-19 -19 -15 -21 -76 -2 -69 7 3 13 0 13 -6 0 -6 -7 -11 -16 -11 -14 0 -15 -2
-3 -17 8 -9 9 -14 3 -11 -14 9 -11 -71 4 -99 9 -16 9 -24 0 -29 -6 -4 -8 -3
-4 4 3 6 3 13 -1 15 -5 3 -8 -52 -8 -123 0 -109 2 -127 15 -123 11 3 10 1 -2
-10 -19 -15 -25 -33 -9 -22 5 3 13 1 16 -5 4 -6 1 -9 -6 -8 -11 2 -14 -77 -14
-407 -1 -225 3 -418 7 -427 5 -11 5 -18 -2 -18 -5 0 -10 -5 -10 -11 0 -5 4 -8
9 -4 5 3 13 1 16 -5 4 -6 1 -9 -7 -8 -10 2 -13 -20 -13 -98 0 -86 2 -101 15
-97 11 3 10 1 -2 -10 -19 -15 -25 -33 -9 -22 5 3 13 1 16 -5 4 -6 1 -9 -7 -8
-10 2 -13 -20 -13 -98 0 -86 2 -101 15 -97 11 3 10 1 -2 -10 -19 -15 -25 -33
-9 -22 5 3 13 1 16 -5 4 -6 1 -9 -7 -8 -10 2 -13 -20 -13 -98 0 -86 2 -101 15
-97 11 3 10 1 -2 -10 -19 -15 -25 -33 -9 -22 5 3 13 1 16 -5 4 -6 1 -9 -7 -8
-10 2 -13 -20 -13 -98 0 -86 2 -101 15 -97 11 3 10 1 -2 -10 -19 -15 -25 -33
-9 -22 5 3 13 1 16 -5 4 -6 1 -9 -6 -8 -10 2 -13 -82 -14 -419 0 -231 3 -419
7 -416 5 2 8 -1 8 -6 0 -6 -3 -11 -8 -11 -4 0 -7 -51 -7 -114 0 -96 2 -113 15
-109 11 3 10 1 -2 -10 -19 -15 -25 -33 -9 -22 5 3 13 1 16 -5 4 -6 1 -9 -7 -8
-17 4 -19 -124 -2 -169 9 -23 10 -34 2 -39 -6 -4 -8 -3 -4 4 3 6 3 13 -2 16
-4 2 -8 -15 -7 -40 0 -28 6 -49 15 -54 12 -8 12 -10 -4 -10 -16 0 -17 -2 -5
-17 8 -9 9 -14 3 -10 -14 8 -11 -52 4 -80 9 -16 9 -24 0 -29 -6 -4 -8 -3 -4 4
3 6 2 13 -3 16 -5 4 -8 -2 -6 -11 2 -10 4 -22 4 -26 1 -5 5 -5 11 -2 6 3 7 -1
4 -9 -3 -9 -9 -14 -13 -11 -9 5 -7 -32 2 -41 10 -10 9 -26 -1 -20 -13 8 -7
-81 7 -97 12 -16 4 -50 -10 -41 -5 3 -6 -2 -3 -10 3 -9 10 -13 15 -10 5 3 6
-2 3 -10 -3 -9 -10 -14 -14 -11 -5 3 -7 -3 -5 -12 2 -10 4 -22 4 -26 1 -5 5
-5 11 -2 6 3 7 -1 4 -9 -3 -9 -9 -14 -13 -12 -4 3 -7 -4 -7 -14 0 -10 5 -16
11 -13 7 2 12 -3 12 -11 0 -8 -7 -12 -16 -9 -11 3 -10 0 3 -11 18 -14 15 -20
-6 -17 -4 0 -5 -6 -2 -14 4 -8 11 -12 18 -8 6 3 2 -4 -8 -16 -20 -22 -20 -22
0 -15 16 7 17 5 7 -7 -10 -12 -10 -18 -1 -27 9 -9 7 -17 -7 -32 -10 -11 -15
-23 -12 -27 4 -3 7 -1 7 5 0 7 5 12 10 12 7 0 7 -6 0 -19 -13 -26 -13 -34 2
-25 8 5 9 2 4 -12 -14 -36 -19 -77 -9 -71 5 3 10 0 10 -8 0 -8 -4 -12 -9 -9
-4 3 -8 -2 -8 -11 0 -9 4 -14 8 -11 5 3 9 -1 9 -9 0 -8 -4 -12 -9 -9 -4 3 -8
-2 -8 -11 0 -9 4 -14 8 -11 5 3 9 -1 9 -9 0 -8 -4 -12 -9 -9 -4 3 -8 -2 -8
-11 0 -9 4 -14 8 -11 4 2 9 -4 9 -15 1 -15 -1 -18 -10 -10 -9 7 -13 5 -13 -8
0 -13 5 -17 16 -13 12 5 12 1 -3 -21 -10 -15 -13 -26 -6 -25 6 2 14 -3 17 -11
2 -8 0 -11 -5 -8 -5 3 -10 0 -10 -8 0 -8 3 -12 6 -11 11 7 7 -89 -4 -96 -6 -5
-4 -8 5 -8 13 0 13 -1 0 -10 -11 -7 -11 -10 -2 -10 9 0 10 -5 2 -19 -7 -14 -7
-22 0 -26 8 -5 7 -11 -1 -21 -8 -10 -8 -14 0 -14 6 0 11 -5 11 -11 0 -5 -4 -8
-8 -5 -5 3 -9 -1 -9 -9 0 -8 5 -15 10 -15 5 0 5 -6 -2 -13 -7 -10 -7 -17 0
-24 8 -8 8 -17 0 -31 -7 -14 -8 -23 -1 -27 5 -3 10 -11 10 -16 0 -6 -4 -8 -8
-5 -4 2 -8 -6 -8 -19 0 -13 3 -22 6 -20 11 7 6 -130 -5 -137 -6 -5 -6 -8 0 -8
14 0 15 -133 1 -142 -8 -6 -8 -8 0 -8 6 0 11 -14 12 -30 0 -21 -3 -28 -11 -23
-7 4 -6 0 2 -10 7 -9 11 -23 8 -31 -3 -7 0 -19 6 -26 7 -8 7 -10 1 -7 -6 3
-11 0 -11 -8 0 -8 5 -11 10 -8 6 4 8 0 4 -10 -4 -10 -1 -17 6 -17 8 0 6 -4 -3
-10 -8 -5 -10 -10 -4 -10 6 0 11 -6 12 -12 3 -46 14 -94 25 -107 10 -12 9 -13
-3 -6 -10 5 -9 1 3 -13 11 -11 16 -26 12 -31 -3 -6 -1 -11 4 -11 6 0 10 -3 9
-7 -1 -5 3 -18 10 -29 6 -12 8 -24 5 -28 -3 -3 -1 -6 5 -6 7 0 12 -5 12 -11 0
-6 10 -25 22 -42 20 -29 20 -30 3 -17 -19 14 -19 14 0 -10 11 -14 27 -31 35
-38 13 -12 13 -13 0 -7 -8 3 -5 -2 7 -11 13 -9 23 -25 23 -35 0 -10 9 -23 20
-29 15 -8 19 -17 15 -33 -5 -17 -4 -19 4 -7 10 13 15 8 12 -13 0 -4 2 -6 6 -6
19 3 33 -2 33 -12 0 -5 -6 -7 -12 -3 -8 4 -10 3 -5 -2 5 -5 13 -10 18 -10 22
-3 23 -5 9 -14 -12 -8 -10 -10 8 -10 13 0 20 -4 17 -10 -3 -5 1 -10 9 -10 9 0
16 -5 16 -11 0 -5 6 -7 12 -3 8 5 7 0 -2 -11 -9 -11 -10 -16 -3 -11 8 4 13 2
13 -4 0 -6 3 -9 8 -7 9 6 33 -19 25 -27 -4 -3 0 -6 8 -6 8 0 20 -9 27 -20 7
-11 19 -20 28 -20 8 0 12 -5 9 -10 -3 -6 1 -10 10 -10 17 0 29 -9 72 -50 14
-14 22 -18 17 -10 -6 12 -5 13 8 3 8 -7 18 -9 23 -5 4 4 6 -2 3 -13 -4 -15 0
-21 13 -21 10 0 15 5 11 11 -4 6 3 -1 15 -15 13 -14 23 -20 23 -15 0 6 5 3 11
-5 8 -12 9 -9 4 10 -5 21 -4 22 5 7 6 -9 15 -15 20 -12 5 3 12 0 16 -6 4 -8 3
-9 -4 -5 -7 4 -12 2 -12 -3 0 -6 7 -11 15 -11 8 0 15 5 15 11 0 5 4 8 9 4 6
-3 8 -14 6 -25 -2 -11 0 -22 5 -25 5 -3 7 4 5 15 -3 13 1 20 12 20 10 0 14 -6
10 -20 -3 -11 -1 -18 4 -14 5 3 9 13 9 22 0 10 3 13 8 7 7 -9 69 -35 86 -35 4
0 4 6 0 12 -5 9 -2 9 9 -1 14 -11 17 -11 17 0 0 11 2 11 10 -1 9 -13 11 -13
20 0 9 12 10 12 8 -5 -2 -15 3 -20 22 -22 14 -1 18 0 8 3 -10 3 -18 10 -18 14
0 6 10 6 23 1 13 -5 45 -7 72 -4 33 4 46 3 41 -5 -4 -6 -14 -9 -24 -6 -14 5
-14 4 -2 -4 8 -6 17 -9 21 -6 4 2 9 1 12 -3 2 -5 2 -2 1 5 -2 6 2 12 8 12 6 0
5 7 -3 18 -12 15 -12 16 1 6 20 -14 61 -16 77 -2 7 6 13 7 13 2 0 -5 -14 -17
-30 -26 -17 -9 -30 -13 -30 -8 0 6 -5 10 -12 10 -7 0 -5 -7 6 -17 13 -13 20
-15 23 -5 3 6 11 12 19 12 9 0 12 -5 8 -12 -4 -7 -3 -8 5 -4 6 4 9 12 6 17 -4
5 -2 9 4 9 5 0 18 3 28 7 15 6 16 5 5 -9 -10 -13 -10 -18 -1 -24 8 -4 9 -3 5
4 -4 7 -5 12 -2 12 2 0 12 3 20 6 12 4 15 2 10 -9 -3 -8 -1 -18 5 -22 7 -4 8
1 4 12 -6 16 -5 17 13 3 17 -14 18 -14 6 1 -10 13 -10 19 2 28 11 9 14 8 12
-5 0 -11 7 -18 21 -19 12 -1 20 2 17 6 -2 4 0 10 5 13 5 3 11 -1 15 -9 3 -9
12 -12 23 -8 16 6 17 5 3 -13 -14 -17 -13 -18 1 -7 9 7 20 9 25 5 5 -4 0 4
-11 16 l-20 24 27 -13 c15 -6 25 -16 21 -22 -3 -6 -1 -7 6 -3 9 6 9 11 0 22
-10 12 -9 13 6 8 14 -6 16 -4 10 7 -7 11 -6 12 6 3 8 -6 24 -10 37 -8 12 2 22
0 22 -5 0 -5 -13 -7 -29 -6 -22 2 -28 -1 -24 -12 5 -12 7 -12 14 -1 7 10 9 10
9 -2 0 -12 2 -13 9 -1 7 11 9 11 14 0 4 -11 6 -11 6 -1 1 7 6 10 13 6 7 -5 9
-2 6 8 -5 11 1 14 20 13 15 -1 30 3 34 9 5 7 8 7 8 -2 0 -7 5 -10 10 -7 6 3
10 2 10 -4 0 -5 -16 -8 -36 -7 -19 2 -33 1 -30 -2 3 -3 0 -12 -6 -21 -12 -15
-11 -15 7 0 25 19 51 18 47 -1 -2 -11 2 -10 11 2 16 21 52 25 41 6 -6 -10 -5
-10 8 -1 8 7 17 10 20 8 10 -10 49 -14 43 -4 -4 5 -11 7 -16 4 -5 -4 -6 2 -2
11 4 11 8 13 11 6 2 -7 10 -12 18 -12 9 0 12 5 9 10 -3 6 -2 10 3 10 6 0 13
-7 16 -16 3 -8 2 -12 -3 -9 -5 3 -12 2 -15 -3 -6 -10 90 -10 100 0 4 4 14 2
23 -5 14 -11 14 -10 2 5 -7 10 -18 15 -24 11 -6 -3 -7 -1 -3 5 9 15 40 0 56
-26 9 -14 10 -14 5 6 -5 16 -3 22 7 20 7 -2 12 3 10 11 -3 12 0 12 12 1 9 -7
16 -9 16 -4 0 5 4 4 8 -2 9 -14 62 -21 80 -11 6 5 12 5 12 0 0 -4 4 -2 9 6 6
10 13 10 28 3 14 -8 23 -8 31 0 9 9 16 7 27 -8 14 -19 14 -19 15 1 1 19 2 19
12 -2 13 -27 21 -28 42 -7 14 14 17 14 22 0 3 -8 14 -14 24 -13 10 0 16 6 13
13 -3 7 10 10 39 9 24 -1 53 1 66 6 13 5 22 5 22 -1 0 -9 -14 -14 -32 -11 -15
2 -8 -8 13 -20 13 -7 19 -7 15 -1 -3 6 -2 13 3 17 5 3 14 -3 20 -12 6 -11 11
-13 12 -5 1 6 2 16 3 21 0 5 5 13 10 18 5 4 7 3 3 -2 -7 -14 30 -38 38 -25 3
5 0 12 -6 16 -8 5 -9 3 -4 -6 6 -9 4 -11 -4 -6 -7 5 -10 11 -7 14 9 9 56 9 56
0 0 -4 5 -8 11 -8 5 0 7 5 3 12 -5 7 -3 8 7 3 20 -13 89 -13 89 -1 0 8 2 8 8
0 4 -5 24 -10 44 -10 23 1 34 -2 28 -8 -6 -6 -10 -14 -10 -20 0 -5 9 1 20 14
11 13 20 19 20 14 0 -5 5 -2 10 6 6 9 10 10 10 3 0 -6 9 -10 20 -8 14 3 18 0
13 -8 -4 -7 0 -6 10 2 15 12 17 11 17 -4 0 -10 5 -15 14 -12 7 3 18 1 23 -4 6
-6 10 -4 10 5 0 8 -4 13 -9 10 -4 -3 -8 -1 -8 4 0 6 7 12 15 16 8 3 14 2 14
-2 -1 -4 -1 -14 0 -22 1 -13 3 -13 10 0 6 8 7 19 3 25 -3 5 1 4 10 -3 11 -9
18 -10 23 -2 3 6 12 7 18 3 18 -11 37 -12 37 -2 0 6 7 6 18 0 26 -14 34 -14
43 1 7 10 12 9 26 -6 10 -10 13 -16 7 -13 -6 3 -11 -1 -11 -10 0 -12 4 -11 18
6 10 12 23 20 28 17 5 -4 12 -2 16 4 4 6 12 7 18 3 19 -11 47 -11 47 1 0 7 3
8 8 1 9 -13 104 -14 113 -2 3 5 9 1 12 -8 4 -9 3 -13 -3 -10 -6 3 -10 1 -10
-4 0 -16 20 -13 26 4 4 8 10 12 16 9 5 -3 4 -13 -4 -22 -12 -15 -11 -16 4 -4
10 8 16 19 15 25 -1 6 7 11 18 11 12 0 19 -5 17 -14 -3 -12 0 -12 15 1 15 13
37 17 46 9 1 -1 21 -3 44 -4 23 -1 46 -6 50 -10 4 -5 3 -6 -4 -2 -6 3 -15 1
-19 -5 -4 -8 -3 -9 4 -5 7 4 12 1 12 -6 0 -10 2 -10 9 1 5 8 7 20 4 28 -6 16
13 18 23 1 4 -6 3 -8 -2 -5 -5 3 -10 -3 -10 -14 0 -21 0 -21 33 28 9 13 12 14
10 3 -1 -8 4 -14 11 -12 8 1 11 -2 7 -7 -3 -6 -12 -8 -20 -4 -8 3 -15 0 -15
-7 0 -6 4 -9 9 -5 6 3 15 -3 21 -12 11 -17 11 -17 6 0 -6 19 4 23 20 7 7 -7
11 -6 11 4 0 8 -4 13 -9 10 -4 -3 -8 -1 -8 4 0 6 7 12 15 16 8 3 14 2 14 -2
-1 -4 -1 -14 0 -22 1 -13 3 -13 10 0 6 8 7 19 3 25 -3 5 1 4 10 -3 11 -9 18
-10 23 -2 3 6 12 7 18 3 19 -12 37 -12 37 -2 0 6 4 7 10 4 19 -12 80 -13 80
-1 0 8 2 8 8 0 4 -6 15 -10 25 -8 11 1 15 -2 10 -9 -4 -7 1 -6 10 2 14 11 17
11 17 -1 0 -15 36 -22 45 -7 3 5 0 6 -8 3 -8 -3 -18 -1 -22 5 -3 7 0 8 9 5 9
-4 16 -1 16 6 0 8 6 9 18 5 26 -11 122 -13 122 -3 0 5 5 6 11 2 8 -4 7 -9 -2
-15 -7 -4 -17 -5 -23 -2 -5 3 -6 2 -3 -4 7 -11 43 -10 54 2 5 4 2 5 -4 1 -9
-5 -11 -2 -6 9 3 9 9 13 12 8 8 -11 104 -11 112 0 3 5 9 1 12 -8 4 -9 3 -13
-3 -10 -6 3 -10 1 -10 -4 0 -16 20 -13 26 4 4 8 10 12 16 9 5 -3 4 -13 -4 -22
-12 -15 -11 -16 4 -4 10 8 16 19 15 25 -1 6 7 11 18 11 12 0 19 -6 17 -14 -3
-11 -1 -11 13 0 21 17 43 21 50 9 3 -4 16 -4 30 1 14 5 24 6 24 2 -1 -4 -1
-14 0 -22 1 -13 3 -13 10 0 6 8 7 19 3 25 -3 5 1 4 10 -3 11 -9 18 -10 23 -2
3 6 12 7 18 3 18 -11 37 -12 37 -2 0 6 8 5 20 -1 11 -6 26 -8 33 -4 9 5 9 4 0
-7 -7 -7 -13 -17 -13 -23 0 -5 9 1 20 14 11 13 20 19 20 14 0 -5 5 -2 10 6 6
9 10 10 10 3 0 -6 9 -10 20 -8 14 3 18 0 13 -8 -4 -7 0 -6 10 2 15 12 17 11
17 -4 0 -10 5 -15 14 -12 7 3 18 1 23 -4 6 -6 10 -4 10 5 0 8 -4 13 -9 10 -4
-3 -8 -1 -8 4 0 6 7 12 15 16 8 3 14 2 14 -2 -1 -4 -1 -14 0 -22 1 -13 3 -13
10 0 6 8 7 19 3 25 -3 5 1 4 10 -3 11 -9 18 -10 23 -2 3 6 12 7 18 3 18 -11
37 -12 37 -2 0 6 7 6 18 0 26 -14 34 -14 43 1 7 10 12 9 26 -6 10 -10 13 -16
7 -13 -6 3 -11 -1 -11 -10 0 -12 4 -11 18 6 10 12 23 20 28 17 5 -4 12 -2 16
4 4 6 12 7 18 3 19 -11 47 -11 47 1 0 7 3 8 8 1 9 -13 104 -14 113 -2 3 5 9 1
12 -8 4 -9 3 -13 -3 -10 -6 3 -10 1 -10 -4 0 -16 20 -13 26 4 4 8 10 12 16 9
5 -3 4 -13 -4 -22 -12 -15 -11 -16 4 -4 10 8 16 19 15 25 -1 6 7 11 18 11 12
0 19 -5 17 -14 -3 -12 0 -12 15 1 15 13 37 17 46 9 1 -1 21 -3 44 -4 23 -1 46
-6 50 -10 4 -5 3 -6 -4 -2 -6 3 -15 1 -19 -5 -4 -8 -3 -9 4 -5 7 4 12 1 12 -6
0 -10 2 -10 9 1 5 8 7 20 4 28 -6 16 13 18 23 1 4 -6 3 -8 -2 -5 -5 3 -10 -3
-10 -14 0 -21 0 -21 33 28 9 13 12 14 10 3 -1 -8 4 -14 11 -12 8 1 11 -2 7 -7
-3 -6 -12 -8 -20 -4 -8 3 -15 0 -15 -7 0 -6 4 -9 9 -5 6 3 15 -3 21 -12 11
-17 11 -17 6 0 -6 19 4 23 20 7 7 -7 11 -6 11 4 0 8 -4 13 -9 10 -4 -3 -8 -1
-8 4 0 6 7 12 15 16 8 3 14 2 14 -2 -1 -4 -1 -14 0 -22 1 -13 3 -13 10 0 6 8
7 19 3 25 -3 5 1 4 10 -3 11 -9 18 -10 23 -2 3 6 12 7 18 3 19 -12 37 -12 37
-2 0 6 4 7 10 4 19 -12 80 -13 80 -1 0 8 2 8 8 0 4 -6 15 -10 25 -8 11 1 15
-2 10 -9 -4 -7 1 -6 10 2 14 11 17 11 17 -1 0 -15 36 -22 45 -7 3 5 0 6 -8 3
-8 -3 -18 -1 -22 5 -3 7 0 8 9 5 9 -4 16 -1 16 6 0 8 6 9 18 5 26 -11 122 -13
122 -3 0 5 5 6 11 2 8 -4 7 -9 -2 -15 -7 -4 -17 -5 -23 -2 -5 3 -6 2 -3 -4 7
-11 43 -10 54 2 5 4 2 5 -4 1 -9 -5 -11 -2 -6 9 3 9 9 13 12 8 8 -11 104 -11
112 0 3 5 9 1 12 -8 4 -9 3 -13 -3 -10 -6 3 -10 1 -10 -4 0 -16 20 -13 26 4 4
8 10 12 16 9 5 -3 4 -13 -4 -22 -12 -15 -11 -16 4 -4 10 8 16 19 15 25 -1 6 7
11 18 11 11 0 19 -5 17 -12 -3 -17 9 -15 25 6 8 9 12 12 9 6 -7 -14 42 -16 50
-3 3 5 11 6 17 2 14 -9 147 -12 161 -5 15 8 56 9 56 1 0 -13 -28 -17 -40 -6
-9 8 -8 5 1 -10 9 -16 16 -19 21 -10 6 9 11 8 19 -3 9 -13 10 -12 5 3 -3 9 -1
17 5 17 6 0 7 5 3 12 -5 7 -3 8 7 2 19 -12 42 -11 52 1 5 6 7 3 3 -7 -3 -12
-1 -15 9 -11 8 3 12 10 8 16 -4 6 -1 7 8 2 23 -15 50 -13 45 2 -3 8 -1 11 5 8
5 -4 7 -15 4 -25 -3 -10 -1 -21 4 -25 7 -3 8 0 5 9 -3 9 -1 16 6 16 6 0 8 5 4
11 -4 8 0 8 15 0 16 -9 21 -9 21 1 1 7 8 2 16 -12 8 -14 13 -17 10 -8 -3 10 0
20 6 24 7 4 8 3 4 -4 -4 -7 -2 -12 4 -12 6 0 8 -5 4 -12 -6 -10 -5 -10 8 -1 8
7 19 9 23 5 5 -4 5 -1 1 6 -4 7 -13 9 -19 6 -7 -4 -9 -3 -4 1 10 12 47 14 40
2 -3 -5 4 -6 18 -3 l24 7 -25 -16 c-14 -9 -18 -14 -9 -11 9 2 21 0 26 -5 6 -6
9 1 8 20 -1 17 2 28 7 25 4 -3 8 -12 8 -21 0 -9 6 -13 15 -10 8 4 17 2 20 -3
6 -9 31 -8 41 3 4 3 -3 4 -15 2 -12 -2 -19 0 -16 5 6 9 24 8 43 -4 7 -4 11 -3
10 2 -2 6 0 9 3 8 3 0 14 6 24 14 11 9 16 10 11 2 -4 -7 -1 -15 8 -18 9 -3 14
-10 11 -14 -4 -7 17 -7 35 0 3 1 9 2 13 1 5 -1 6 3 3 8 -4 5 -15 8 -26 6 -11
-2 -20 0 -20 4 0 5 16 8 35 7 19 0 34 -5 32 -11 -1 -5 3 -11 8 -12 6 -2 10 1
10 6 0 25 15 20 16 -5 1 -21 3 -23 6 -9 3 11 10 25 15 30 8 7 9 6 4 -2 -5 -8
-1 -13 9 -13 10 0 13 -5 9 -12 -5 -8 0 -7 11 2 17 14 18 13 12 -2 -3 -10 -2
-20 3 -23 4 -3 7 6 6 20 -3 20 0 23 15 15 28 -15 35 -12 13 6 -17 14 -16 14 9
0 24 -14 27 -15 27 -1 0 8 5 15 11 15 6 0 8 -10 5 -22 -3 -13 -3 -17 0 -10 3
6 15 12 25 12 13 0 18 -4 13 -12 -4 -7 -3 -8 5 -4 9 6 9 11 1 21 -9 11 -7 12
9 8 12 -3 18 -10 14 -16 -3 -5 -1 -7 5 -3 5 3 12 3 15 -1 2 -5 2 -2 1 5 -2 6
1 13 6 13 20 3 25 5 38 13 11 7 12 4 3 -13 -9 -17 -9 -21 1 -19 7 2 12 -4 10
-12 -3 -11 1 -10 16 3 11 10 22 15 24 10 3 -4 4 -3 2 3 -1 7 8 11 20 10 14 0
22 -7 21 -16 -1 -9 0 -10 2 -2 4 11 8 11 21 0 11 -10 11 -5 -4 17 -13 22 -14
27 -3 18 12 -10 18 -10 29 0 12 10 12 9 1 -6 -15 -20 -2 -23 18 -4 12 10 13 8
7 -8 -4 -11 -4 -16 0 -12 4 4 16 -1 27 -10 20 -18 20 -18 4 7 -14 23 -14 26 1
40 14 13 15 12 9 -4 -11 -29 2 -37 34 -21 17 9 27 21 23 27 -5 7 -3 8 5 4 9
-6 9 -12 -3 -24 -13 -16 -12 -17 18 -17 23 0 32 4 29 12 -3 7 -9 10 -14 7 -5
-3 -9 0 -9 6 0 7 7 9 16 6 9 -4 22 -2 29 4 8 7 12 5 12 -5 0 -8 -4 -12 -9 -9
-4 3 -8 0 -8 -5 0 -15 11 -13 33 4 11 7 25 11 33 8 8 -3 14 1 14 8 0 7 3 10 6
7 3 -4 -2 -19 -11 -35 -11 -17 -11 -21 -2 -10 18 21 27 22 27 2 0 -8 5 -15 10
-15 7 0 7 7 -1 21 -8 16 -8 24 1 33 6 6 11 7 10 1 -4 -20 0 -35 11 -35 5 0 8
3 6 8 -3 4 1 13 9 20 10 9 14 9 14 1 0 -6 7 -8 16 -5 9 3 24 -4 38 -19 22 -24
24 -24 37 -8 13 16 12 17 -3 5 -14 -11 -17 -10 -23 7 -3 12 -11 21 -17 21 -6
0 -8 3 -5 6 4 4 14 1 23 -7 14 -12 19 -10 35 10 11 13 19 18 19 11 0 -10 3
-10 15 0 8 7 15 9 16 4 0 -5 4 0 9 11 8 18 9 18 9 2 1 -15 4 -16 21 -7 12 6
18 16 14 23 -5 8 -2 8 7 -1 12 -11 12 -14 -1 -22 -11 -7 -11 -10 -2 -10 7 0
11 -4 7 -9 -3 -5 -1 -13 5 -16 6 -4 9 -1 8 6 -2 7 3 13 10 14 6 0 12 3 12 8 0
30 -1 31 -11 17 -9 -13 -10 -12 -5 2 3 10 0 18 -6 18 -6 0 -8 3 -5 6 4 4 13 2
20 -4 8 -7 17 -8 21 -4 4 4 6 1 4 -7 -1 -7 5 -15 15 -16 15 -3 16 -1 6 11 -8
10 -9 18 0 27 6 8 8 17 4 21 -4 4 0 4 10 0 9 -3 17 -10 17 -16 0 -5 -4 -7 -9
-3 -18 10 -21 -13 -4 -26 14 -12 16 -12 8 0 -6 11 -3 13 15 8 16 -4 23 -1 27
14 7 24 20 25 26 2 4 -15 5 -15 6 -2 0 9 -6 22 -14 29 -8 7 -15 17 -15 23 0 6
6 3 13 -6 14 -20 62 -33 50 -14 -12 20 -10 45 3 40 7 -3 10 -12 6 -21 -5 -14
-4 -15 10 -2 13 13 13 16 -6 32 -12 10 -15 17 -8 18 6 0 12 -4 12 -10 0 -5 7
-10 16 -10 12 0 14 3 6 13 -8 9 -7 13 6 14 49 4 65 9 73 25 6 10 15 15 21 12
6 -4 8 -3 5 3 -9 14 19 36 35 28 7 -4 5 0 -6 9 -10 8 -16 21 -13 28 4 10 6 10
6 1 1 -13 33 -18 44 -7 12 13 -14 46 -31 39 -14 -5 -14 -4 -5 6 10 10 18 8 39
-12 16 -15 24 -19 22 -9 -2 8 3 14 10 12 6 -1 11 4 10 10 -2 7 3 12 10 10 8
-1 11 2 8 7 -4 5 6 22 21 37 16 17 21 25 11 22 -13 -5 -16 -2 -13 14 3 11 7
23 10 26 2 3 -1 12 -8 21 -10 14 -10 14 5 3 11 -9 18 -10 23 -2 3 5 1 10 -5
10 -6 0 -8 5 -4 11 4 8 9 7 15 -2 5 -8 2 -20 -8 -31 -9 -10 -12 -18 -6 -18 5
0 21 16 35 36 14 19 29 34 34 32 4 -2 8 7 9 20 1 12 -3 21 -9 19 -6 -2 -11 -8
-11 -13 0 -5 -8 -20 -18 -34 -9 -13 -17 -20 -17 -14 0 6 3 14 8 18 4 4 7 11 8
14 3 23 19 42 34 42 9 0 29 18 43 39 26 38 26 39 6 56 -13 13 -16 22 -9 30 5
6 7 14 5 17 -3 3 7 4 22 2 15 -2 22 -1 16 2 -7 3 -13 12 -13 20 0 8 -4 14 -10
14 -5 0 -10 5 -10 12 0 9 3 9 11 1 14 -14 39 -6 39 13 0 7 10 23 23 34 13 13
16 20 7 18 -9 -2 -16 6 -18 20 -2 12 -8 20 -13 17 -5 -4 -5 -14 2 -26 6 -12 8
-23 5 -27 -3 -3 -6 0 -6 7 0 7 -5 9 -11 5 -8 -5 -8 -8 0 -14 12 -7 5 -40 -9
-40 -5 0 -12 5 -16 12 -4 6 -3 8 4 4 6 -3 13 -2 16 3 4 5 2 13 -4 16 -8 5 -8
11 0 20 6 7 10 17 9 21 -3 14 12 44 22 44 5 0 8 -5 7 -11 -2 -6 4 -14 12 -16
10 -3 11 -2 4 4 -6 4 -9 17 -7 28 2 11 5 44 6 73 1 28 6 52 12 52 7 0 7 3 -1
8 -5 4 -10 17 -11 30 -1 38 -3 41 -15 38 -7 -1 -9 -1 -5 2 4 2 2 11 -5 20 -12
16 -11 16 7 2 11 -8 23 -19 27 -25 4 -5 6 6 4 25 -2 23 3 39 13 48 14 11 14
11 -1 6 -22 -8 -23 0 -2 32 10 14 13 24 8 23 -20 -3 -24 2 -15 20 6 10 7 21 3
25 -3 4 -7 19 -8 34 -3 50 -4 53 -16 46 -9 -5 -9 -2 1 9 7 9 10 17 6 17 -4 0
1 12 11 28 11 17 12 23 3 16 -11 -9 -17 -8 -29 4 -13 14 -12 15 2 10 26 -10
31 5 6 20 l-23 13 23 -5 c15 -3 22 0 19 7 -2 7 -9 12 -14 12 -6 0 -15 4 -20 8
-4 5 -2 7 6 5 7 -1 16 3 18 10 3 7 1 11 -4 10 -4 -2 -8 2 -8 7 0 6 3 9 7 8 4
-2 10 6 13 17 4 11 12 20 18 20 8 0 7 4 -2 9 -8 5 -23 8 -33 6 -10 -2 -16 0
-13 6 4 5 10 7 15 4 10 -6 24 13 25 36 1 10 -4 15 -10 13 -7 -3 -18 3 -26 13
-12 16 -12 17 2 6 13 -11 18 -9 27 12 8 18 8 26 0 31 -7 5 -8 3 -3 -6 6 -9 4
-11 -4 -6 -9 6 -8 13 6 28 18 21 18 21 -5 9 -21 -11 -22 -11 -10 8 6 11 17 17
23 13 5 -3 4 1 -2 9 -10 12 -10 18 0 29 9 10 9 11 0 6 -15 -8 -17 6 -3 20 6 6
5 15 -1 24 -9 13 -10 12 -5 -2 3 -10 1 -20 -4 -23 -6 -4 -10 3 -10 15 0 14 -4
19 -12 14 -8 -4 -10 -3 -5 2 5 5 14 9 20 9 5 0 12 6 15 14 3 8 1 11 -4 8 -5
-2 -16 2 -24 11 -13 14 -12 15 4 9 14 -5 17 -3 13 8 -4 8 -2 17 3 20 6 4 10
11 10 17 0 7 -5 6 -14 -1 -10 -8 -16 -9 -21 -1 -6 9 1 14 17 11 12 -2 4 35
-12 55 -9 11 -10 15 -2 10 6 -4 12 -2 12 3 0 6 5 11 11 11 8 0 8 -5 -1 -15 -9
-10 -9 -15 -1 -15 11 0 15 13 12 39 -2 8 2 10 10 5 8 -4 10 -3 5 5 -6 9 -11 9
-22 0 -8 -6 -17 -9 -21 -5 -3 3 -1 6 5 6 7 0 12 4 12 10 0 5 -8 7 -17 4 -14
-5 -15 -4 -4 4 8 6 21 8 30 5 9 -3 4 5 -11 18 -25 22 -26 26 -13 43 8 11 15
15 15 10 0 -6 -5 -15 -11 -21 -8 -8 -8 -13 0 -17 6 -4 11 -2 11 5 0 8 5 8 18
-2 14 -11 15 -11 5 1 -16 18 -17 54 -1 44 7 -4 8 -3 4 4 -4 6 -14 8 -23 5 -10
-4 -14 -2 -9 5 3 6 -1 15 -10 20 -15 8 -15 10 0 15 9 4 16 11 16 17 0 6 -5 8
-12 4 -7 -4 -8 -3 -4 4 4 6 13 9 22 5 13 -5 13 -8 -1 -23 -14 -15 -14 -18 -1
-23 11 -4 13 -1 9 10 -4 10 -2 14 4 10 22 -14 6 26 -18 44 -21 17 -22 19 -4
16 11 -1 27 -7 35 -12 11 -6 10 -3 -2 12 -21 23 -23 39 -5 47 6 3 2 3 -10 1
-12 -3 -24 -1 -28 5 -4 6 -1 9 6 8 6 -2 14 3 17 11 3 9 0 11 -9 6 -8 -5 -11
-5 -7 0 4 4 3 14 -3 21 -6 8 -7 14 0 18 6 4 8 14 5 24 -5 14 -4 14 4 2 7 -8 7
-19 2 -25 -6 -7 -1 -16 13 -25 20 -12 21 -12 8 4 -13 15 -13 19 0 27 11 7 11
9 0 9 -8 0 -11 7 -8 19 3 13 0 18 -8 15 -7 -3 -16 0 -20 6 -3 6 -1 9 6 8 6 -2
14 3 17 11 3 9 0 11 -9 6 -8 -5 -11 -5 -7 0 4 4 3 14 -3 21 -6 8 -7 14 0 18 6
4 8 14 5 24 -5 14 -4 14 4 2 7 -9 7 -18 1 -26 -6 -8 -4 -14 7 -18 24 -9 31 -7
14 4 -13 9 -13 11 0 20 10 6 11 10 3 10 -7 0 -13 6 -13 14 0 8 6 17 13 20 6 3
2 3 -10 1 -12 -3 -24 -1 -28 5 -4 6 -1 9 6 8 6 -2 14 3 17 11 3 9 0 11 -9 6
-8 -5 -11 -5 -7 0 4 4 3 14 -3 21 -7 8 -6 14 2 20 7 4 9 3 6 -2 -3 -6 4 -16
16 -24 20 -12 21 -12 8 3 -7 9 -11 30 -9 46 3 20 0 27 -8 24 -7 -2 -15 1 -19
7 -3 6 -3 9 2 8 4 -2 8 2 8 7 0 6 -6 9 -15 7 -12 -2 -12 -1 -1 6 7 5 23 8 35
6 11 -2 15 -2 9 2 -9 4 -10 11 -3 24 6 10 6 21 1 24 -12 8 -20 -4 -14 -20 3
-8 1 -14 -4 -14 -4 0 -9 34 -9 75 -1 41 2 72 7 70 4 -3 6 -20 5 -39 -2 -26 0
-33 11 -29 10 4 11 9 3 19 -8 9 -8 19 0 35 10 17 9 20 -1 14 -9 -6 -10 -3 -5
11 4 10 8 21 9 24 1 3 -2 5 -8 5 -5 0 -9 -5 -7 -12 2 -7 -1 -13 -7 -13 -5 0
-8 11 -6 25 1 15 -4 29 -12 34 -13 7 -13 9 2 14 9 4 14 11 10 16 -3 5 -1 12 5
16 5 3 15 16 20 28 10 20 10 20 -3 5 -8 -10 -16 -18 -19 -18 -2 0 -4 25 -5 55
0 30 3 52 7 50 5 -3 7 -20 6 -39 -2 -26 0 -33 11 -29 10 4 11 9 3 19 -8 9 -8
19 0 35 10 17 9 20 -1 14 -9 -6 -10 -3 -5 11 4 10 8 21 9 24 1 3 -2 5 -8 5 -5
0 -9 -6 -7 -12 2 -7 -1 -13 -7 -13 -5 0 -8 11 -6 25 1 15 -4 29 -12 34 -13 7
-13 9 2 14 9 4 14 11 10 16 -3 5 -1 12 5 16 5 3 15 16 20 28 10 20 10 20 -3 5
-22 -27 -24 -23 -23 38 1 38 -2 58 -11 61 -10 4 -9 9 4 18 11 8 22 10 29 4 7
-5 11 -4 11 6 0 8 -4 12 -9 9 -12 -8 -10 10 5 26 6 8 2 6 -11 -4 -12 -11 -25
-16 -29 -13 -3 4 -2 7 3 7 6 0 9 23 8 50 -2 28 1 48 6 45 5 -3 7 -20 6 -39 -2
-26 0 -33 11 -29 10 4 11 9 3 19 -8 9 -8 19 0 35 10 17 9 20 -1 14 -9 -6 -10
-3 -5 11 4 10 8 21 9 24 1 3 -2 5 -8 5 -5 0 -9 -6 -7 -13 2 -6 -1 -12 -7 -12
-5 0 -8 11 -6 25 1 14 -2 28 -7 31 -5 3 -4 12 3 20 6 8 8 14 4 14 -5 0 -1 8 7
18 8 9 18 24 22 32 5 9 2 8 -7 -2 -8 -10 -16 -18 -19 -18 -2 0 -4 25 -5 55 0
30 3 52 7 50 5 -3 7 -20 6 -39 -2 -26 0 -33 11 -29 10 4 11 9 3 19 -8 9 -8 19
0 35 10 17 9 20 -1 14 -9 -6 -10 -3 -5 11 4 10 8 21 9 24 1 3 -2 5 -8 5 -5 0
-9 -6 -7 -12 2 -7 -1 -13 -7 -13 -5 0 -8 11 -6 25 1 14 -2 28 -7 31 -5 3 -4
12 3 20 6 8 8 14 4 14 -5 0 -1 8 7 18 8 9 18 24 22 32 5 9 2 8 -7 -2 -22 -27
-25 -22 -23 32 2 27 -1 47 -5 44 -4 -2 -10 0 -13 5 -4 5 2 8 11 7 14 -2 18
-12 17 -38 0 -26 4 -34 13 -31 10 4 11 9 3 19 -8 9 -8 19 0 35 10 17 9 20 -1
14 -9 -6 -10 -3 -5 11 4 10 8 21 9 24 1 3 -2 5 -8 5 -5 0 -9 -6 -7 -13 2 -6
-1 -12 -5 -12 -5 0 -9 34 -9 75 -1 41 2 72 7 70 4 -3 6 -20 5 -39 -2 -26 0
-33 11 -29 10 4 11 9 3 19 -8 9 -8 19 0 35 10 17 9 20 -1 14 -9 -6 -10 -3 -5
11 4 10 8 21 9 24 1 3 -2 5 -8 5 -5 0 -9 -6 -7 -13 2 -6 -1 -12 -7 -12 -5 0
-8 11 -6 25 1 15 -4 29 -12 34 -13 7 -13 9 2 14 9 4 14 11 10 16 -3 5 -1 12 5
16 5 3 15 16 20 28 10 20 10 20 -3 5 -8 -10 -16 -18 -19 -18 -2 0 -4 25 -5 55
0 30 3 52 7 50 5 -3 7 -20 6 -39 -2 -26 0 -33 11 -29 10 4 11 9 3 19 -8 9 -8
19 0 35 10 17 9 20 -1 14 -9 -6 -10 -3 -5 11 4 10 8 21 9 24 1 3 -2 5 -8 5 -5
0 -9 -6 -7 -13 2 -6 -1 -12 -7 -12 -5 0 -8 11 -6 25 1 15 -4 29 -12 34 -13 7
-13 9 2 14 9 4 14 11 10 16 -3 5 -1 12 5 16 5 3 15 16 20 28 10 20 10 20 -3 5
-22 -27 -24 -23 -23 38 1 38 -2 58 -11 61 -10 4 -9 9 4 18 11 8 22 10 29 4 7
-5 11 -4 11 6 0 8 -4 12 -9 9 -12 -8 -10 10 5 26 6 8 2 6 -11 -4 -12 -11 -25
-16 -29 -13 -3 4 -2 7 3 7 6 0 9 23 8 50 -2 28 1 48 6 45 5 -3 7 -20 6 -39 -2
-26 0 -33 11 -29 10 4 11 9 3 19 -8 9 -8 19 0 35 10 17 9 20 -1 14 -9 -6 -10
-3 -5 11 4 10 8 21 9 24 1 3 -2 6 -8 7 -5 1 -9 -5 -7 -13 2 -8 -1 -14 -7 -14
-5 0 -8 11 -6 25 1 14 -2 28 -7 31 -5 3 -4 12 3 20 6 8 8 14 4 14 -5 0 -1 8 7
18 8 9 18 24 22 32 5 9 2 8 -7 -2 -8 -10 -16 -18 -19 -18 -2 0 -4 25 -5 55 0
30 3 52 7 50 5 -3 7 -20 6 -39 -2 -26 0 -33 11 -29 10 4 11 9 3 19 -8 9 -8 19
0 35 10 17 9 20 -1 14 -9 -6 -10 -3 -5 11 4 10 8 21 9 24 1 3 -2 6 -8 7 -5 1
-9 -5 -7 -13 2 -8 -1 -14 -7 -14 -5 0 -8 11 -6 25 1 14 -2 28 -7 31 -5 3 -4
12 3 20 6 8 8 14 4 14 -5 0 -1 8 7 18 8 9 18 24 22 32 5 9 2 8 -7 -2 -22 -27
-25 -22 -23 32 2 27 -1 47 -5 44 -4 -2 -10 0 -13 5 -4 5 2 8 11 7 14 -2 18
-12 17 -38 0 -26 4 -34 13 -31 10 4 11 9 3 19 -8 9 -8 19 0 35 10 17 9 20 -1
14 -9 -6 -10 -3 -5 11 4 10 8 21 9 24 1 3 -2 5 -8 5 -5 0 -9 -6 -7 -12 2 -7
-1 -13 -5 -13 -5 0 -9 34 -9 75 -1 41 2 72 7 70 4 -3 6 -20 5 -39 -2 -26 0
-33 11 -29 10 4 11 9 3 19 -8 9 -8 19 0 35 10 17 9 20 -1 14 -9 -6 -10 -3 -5
11 4 10 8 21 9 24 1 3 -2 5 -8 5 -5 0 -9 -5 -7 -12 2 -7 -1 -13 -7 -13 -5 0
-8 11 -6 25 1 15 -4 29 -12 34 -13 7 -13 9 2 14 9 4 14 11 10 16 -3 5 -1 12 5
16 5 3 15 16 20 28 10 20 10 20 -3 5 -8 -10 -16 -18 -19 -18 -2 0 -4 25 -5 55
0 30 3 52 7 50 5 -3 7 -20 6 -39 -2 -26 0 -33 11 -29 10 4 11 9 3 19 -8 9 -8
19 0 35 10 17 9 20 -1 14 -9 -6 -10 -3 -5 11 4 10 8 21 9 24 1 3 -2 5 -8 5 -5
0 -9 -5 -7 -12 2 -7 -1 -13 -7 -13 -5 0 -8 11 -6 25 1 15 -4 29 -12 34 -13 7
-13 9 2 14 9 4 14 11 10 16 -3 5 -1 12 5 16 5 3 15 16 20 28 10 20 10 20 -3 5
-22 -27 -24 -23 -23 38 1 38 -2 58 -11 61 -10 4 -9 9 4 18 11 8 22 10 29 4 7
-5 11 -4 11 6 0 8 -4 12 -9 9 -12 -8 -10 10 5 26 6 8 2 6 -11 -4 -12 -11 -25
-16 -29 -13 -3 4 -2 7 3 7 6 0 9 23 8 50 -2 28 1 48 6 45 5 -3 7 -20 6 -39 -2
-26 0 -33 11 -29 10 4 11 9 3 19 -8 9 -8 19 0 35 10 17 9 20 -1 14 -9 -6 -10
-3 -5 11 4 10 8 21 9 24 1 3 -2 5 -8 5 -5 0 -9 -6 -7 -12 2 -7 -1 -13 -7 -13
-5 0 -8 11 -6 25 1 14 -2 28 -7 31 -5 3 -4 12 3 20 6 8 8 14 4 14 -5 0 -1 8 7
18 8 9 18 24 22 32 5 9 2 8 -7 -2 -8 -10 -16 -18 -19 -18 -2 0 -4 25 -5 55 0
30 3 52 7 50 5 -3 7 -20 6 -39 -2 -26 0 -33 11 -29 10 4 11 9 3 19 -8 9 -8 19
0 35 10 17 9 20 -1 14 -9 -6 -10 -3 -5 11 12 30 12 32 1 30 -5 0 -9 -7 -7 -13
2 -7 -1 -13 -7 -13 -5 0 -8 11 -6 25 1 14 -2 28 -7 31 -5 3 -4 12 3 20 6 8 8
14 4 14 -5 0 -1 8 7 18 8 9 18 24 22 32 5 9 2 8 -7 -2 -22 -27 -24 -23 -23 38
1 30 -2 58 -7 61 -4 2 -3 11 4 19 8 10 15 11 24 4 8 -7 12 -5 12 5 0 8 -4 12
-9 9 -4 -3 -8 4 -8 16 0 14 4 19 13 14 6 -4 9 -4 5 1 -4 4 -2 15 5 24 11 14
10 15 -7 1 -18 -13 -19 -13 -14 1 5 12 1 15 -19 13 -14 -1 -22 1 -18 4 4 4 12
7 18 7 5 0 12 6 15 14 3 8 0 11 -7 7 -7 -5 -10 -2 -9 6 2 7 -4 12 -12 10 -12
-3 -12 0 1 15 9 10 14 25 12 33 -4 13 -3 13 6 0 6 -9 7 -18 0 -26 -7 -8 -6
-14 1 -19 5 -3 10 0 10 9 0 8 6 17 13 19 10 4 10 6 0 6 -7 1 -13 7 -13 15 0 8
6 17 13 20 6 3 2 3 -10 1 -12 -3 -24 -1 -28 5 -4 6 -1 9 6 8 6 -2 14 3 17 11
3 9 0 11 -7 7 -7 -5 -10 -2 -9 6 2 7 -4 12 -12 10 -12 -3 -12 0 1 15 9 10 14
25 12 33 -4 13 -3 13 6 0 6 -8 6 -19 1 -25 -6 -7 -1 -16 13 -25 20 -12 21 -12
8 4 -13 15 -13 19 0 27 11 7 11 9 0 9 -8 0 -11 7 -8 19 3 13 0 18 -8 15 -7 -3
-16 0 -20 6 -3 6 -3 10 2 9 24 -4 25 4 3 22 l-25 20 25 -12 c14 -7 28 -17 32
-23 6 -8 8 -7 8 1 0 6 -9 18 -20 26 -25 17 -15 30 14 16 20 -10 20 -9 2 5 -10
9 -22 13 -27 11 -4 -3 -7 16 -6 42 1 36 -2 47 -12 45 -12 -3 -12 0 -2 12 14
17 36 11 25 -6 -4 -7 -2 -8 4 -4 6 4 8 14 5 23 -5 12 -3 14 7 8 8 -5 11 -4 6
3 -4 6 -14 8 -24 5 -9 -3 -14 -3 -10 2 4 4 3 14 -3 21 -7 8 -7 14 1 19 17 10
11 25 -7 19 -14 -5 -15 -4 -4 4 8 6 21 8 30 5 9 -3 5 5 -9 17 -14 12 -19 19
-12 15 6 -3 12 -1 12 6 0 7 9 5 22 -7 l22 -19 -20 26 c-10 15 -22 22 -25 17
-3 -5 -9 -2 -12 7 -4 9 -3 13 3 10 6 -3 10 -2 10 4 0 6 8 8 18 5 10 -4 13 -2
7 3 -16 12 -17 55 -2 46 7 -4 6 0 -2 10 -16 20 -22 22 -19 6 2 -6 -3 -13 -10
-14 -7 -2 -8 -1 -2 2 5 2 8 8 5 13 -3 4 2 13 10 20 8 7 15 18 15 24 0 7 -3 7
-8 1 -4 -5 -16 -17 -27 -25 -20 -15 -20 -14 -1 8 18 20 15 27 -9 22 -5 -1 -2
7 8 18 16 17 16 20 2 32 -14 12 -14 15 1 31 9 10 20 17 24 14 3 -2 6 6 5 18
-2 13 -8 21 -16 19 -11 -3 -11 -1 -2 9 6 6 9 18 6 27 -4 10 -2 13 5 8 8 -5 10
-2 5 9 -5 13 -7 14 -14 3 -5 -7 -9 -9 -9 -4 0 5 8 18 18 29 17 19 16 20 -8 7
-21 -10 -23 -10 -12 1 17 19 15 29 -5 23 -16 -5 -16 -4 -2 5 10 6 15 21 13 38
-1 15 3 34 9 42 10 12 8 13 -13 7 -18 -5 -21 -5 -11 3 13 8 13 12 0 27 -9 11
-9 15 -2 10 8 -4 17 2 25 18 6 14 16 26 22 26 5 0 1 7 -10 15 -10 8 -15 15 -9
15 5 0 -1 7 -13 16 -18 13 -21 19 -11 30 9 11 9 18 -1 29 -12 14 -7 19 13 16
5 -1 7 4 4 11 -2 7 -10 12 -16 10 -7 -1 -10 2 -6 8 3 6 10 8 15 5 5 -3 12 0
16 6 5 8 3 9 -6 4 -8 -5 -11 -3 -8 6 3 8 14 12 24 11 10 -2 16 0 11 4 -4 4
-17 8 -30 10 -12 1 -24 3 -26 3 -2 1 2 8 9 16 7 9 9 22 5 32 -13 29 -14 43 -4
49 13 8 11 42 -3 47 -10 4 -10 6 0 6 8 1 10 6 5 14 -14 22 -12 36 5 29 15 -5
15 -4 3 11 -7 9 -10 17 -5 17 4 0 3 5 -4 12 -15 15 -16 28 -2 28 6 0 9 -5 8
-11 -2 -6 4 -14 12 -16 9 -3 11 -1 5 4 -6 4 -11 17 -11 28 0 11 5 23 11 27 6
5 5 8 -3 8 -7 0 -11 4 -7 9 3 5 -1 16 -10 24 -12 13 -12 16 0 20 7 3 16 1 19
-6 2 -7 4 -3 3 8 -4 31 -17 47 -36 41 -12 -5 -12 -3 3 9 10 8 22 12 26 10 4
-2 7 2 7 10 0 8 -5 11 -11 7 -24 -15 -34 -10 -30 15 3 17 1 22 -7 17 -8 -4 -9
-3 -5 5 4 6 12 9 17 6 5 -3 6 1 3 9 -3 9 -11 13 -17 9 -5 -3 -7 -1 -3 5 3 6 2
13 -3 16 -5 3 -7 15 -4 26 3 12 0 20 -8 20 -7 0 -10 3 -6 6 3 3 2 17 -3 30 -6
15 -5 26 2 30 6 4 8 3 4 -4 -3 -6 -2 -13 3 -16 5 -4 8 2 7 11 -2 10 -8 18 -14
18 -20 0 -35 22 -21 30 8 6 10 4 4 -5 -6 -9 -4 -11 4 -6 9 6 8 13 -5 27 -9 10
-20 17 -23 15 -3 -3 -6 11 -5 30 2 31 0 33 -14 22 -12 -10 -14 -10 -8 0 4 7 2
12 -6 12 -9 0 -9 3 2 10 14 9 7 14 -13 11 -5 -1 -5 8 -2 20 6 17 4 21 -8 16
-12 -4 -14 -2 -10 10 4 10 2 14 -4 10 -6 -4 -10 1 -9 10 0 9 -10 22 -22 29
-17 8 -20 13 -10 17 8 4 7 6 -5 6 -10 1 -15 6 -12 11 3 6 1 10 -5 10 -6 0 -8
5 -5 10 3 6 -1 10 -9 10 -9 0 -16 9 -16 21 0 11 -4 18 -9 15 -5 -3 -12 1 -15
10 -3 8 -10 13 -15 9 -5 -3 -13 0 -17 6 -4 8 -3 9 4 5 7 -4 12 -2 12 3 0 6 -4
11 -10 11 -5 0 -31 21 -57 47 -26 25 -39 40 -28 32 18 -13 19 -13 6 3 -7 10
-17 16 -21 13 -4 -2 -16 6 -28 18 -28 29 -43 42 -64 50 -10 3 -18 11 -18 17 0
6 -5 8 -10 5 -5 -3 -10 1 -10 9 0 9 -3 16 -7 15 -18 -3 -52 14 -47 23 3 5 0 9
-7 7 -28 -3 -40 1 -33 13 4 6 3 8 -4 5 -14 -9 -43 3 -36 14 3 5 -2 6 -10 3 -9
-3 -16 -2 -16 4 0 6 -9 8 -20 5 -11 -3 -20 -1 -20 5 0 5 -7 13 -16 16 -8 3
-12 2 -9 -4 3 -6 -1 -7 -9 -4 -9 3 -14 9 -11 14 2 4 -7 6 -20 4 -14 -1 -27 2
-31 7 -3 5 -10 9 -15 9 -6 0 -7 -5 -3 -11 4 -8 0 -7 -15 1 -13 6 -19 16 -14
23 4 8 2 8 -9 -1 -11 -9 -18 -10 -23 -2 -3 5 -12 10 -18 10 -7 0 -6 -4 3 -10
11 -7 5 -9 -20 -6 -19 3 -39 5 -43 5 -5 1 -5 7 -1 14 6 9 4 9 -7 1 -16 -13
-147 -15 -155 -2 -3 4 -11 5 -17 1 -7 -4 -31 -9 -55 -10 -32 -2 -41 1 -36 10
6 9 5 9 -7 0 -15 -12 -36 -13 -55 0 -6 3 -14 3 -18 0 -11 -11 -60 -10 -68 2
-5 7 -8 7 -8 0 0 -12 -40 -12 -59 -1 -8 5 -16 3 -21 -4 -5 -8 -10 -8 -14 -2
-7 11 -24 11 -43 -1 -6 -4 -14 -3 -18 3 -4 6 -10 8 -14 6 -24 -15 -65 -14 -78
2 -12 16 -13 16 -7 -1 7 -19 -15 -21 -28 -2 -5 6 -8 4 -8 -5 0 -13 -1 -13 -10
0 -8 12 -11 13 -19 1 -7 -11 -9 -11 -14 0 -4 11 -6 11 -6 1 -1 -8 -6 -10 -13
-5 -7 4 -22 9 -33 10 -16 3 -17 1 -5 -7 12 -8 9 -9 -10 -6 -14 3 -29 5 -33 5
-5 1 -5 7 -2 14 4 6 -1 3 -9 -7 -12 -15 -16 -16 -16 -5 0 12 -2 12 -9 0 -7
-11 -9 -11 -14 0 -4 11 -6 11 -6 0 -1 -11 -5 -10 -17 5 -8 10 -13 14 -10 8 7
-15 -21 -27 -30 -13 -4 6 -11 6 -20 -2 -11 -9 -14 -8 -14 7 0 16 -2 17 -10 4
-11 -17 -30 -20 -47 -7 -9 6 -13 5 -13 -4 0 -11 -2 -11 -9 0 -8 13 -12 13 -27
0 -10 -8 -15 -9 -11 -3 4 7 -2 14 -14 17 -15 4 -18 2 -10 -7 13 -15 -54 -15
-70 1 -8 8 -18 7 -37 -3 -23 -11 -29 -11 -43 2 -12 11 -19 12 -24 4 -5 -8 -11
-8 -21 1 -12 10 -13 9 -7 -7 6 -16 4 -17 -8 -7 -12 10 -18 10 -29 0 -10 -10
-12 -9 -7 6 4 9 2 17 -3 17 -6 0 -10 -8 -11 -17 0 -12 -2 -13 -6 -5 -4 10 -8
10 -21 0 -12 -10 -14 -10 -8 0 4 7 1 12 -9 12 -9 0 -14 -3 -12 -8 3 -4 -8 -7
-23 -7 -16 -1 -27 2 -24 6 10 16 -30 18 -43 2 -14 -17 -14 -17 -9 1 5 15 4 17
-8 7 -10 -8 -16 -9 -21 -1 -4 7 -13 5 -28 -5 -19 -13 -23 -13 -38 1 -15 13
-19 13 -30 1 -12 -12 -15 -12 -25 1 -9 12 -13 12 -19 2 -6 -9 -4 -11 5 -5 9 6
11 4 6 -4 -6 -9 -12 -9 -24 3 -15 12 -20 13 -36 0 -17 -12 -22 -12 -37 2 -15
13 -18 13 -32 0 -11 -12 -17 -12 -19 -4 -3 8 -25 13 -55 13 -28 0 -50 -2 -47
-6 2 -4 -5 -9 -17 -12 -15 -4 -17 -2 -10 6 7 9 -6 12 -50 12 -42 0 -59 -3 -59
-13 0 -7 -5 -10 -10 -7 -6 4 -8 9 -6 13 2 4 -9 7 -24 7 -16 1 -26 -3 -24 -7 3
-4 -2 -8 -11 -8 -9 0 -14 4 -11 9 3 4 -7 7 -22 5 -50 -6 -97 -6 -124 0 -16 4
-28 2 -28 -3 0 -5 -9 -11 -21 -14 -15 -4 -17 -2 -10 6 7 9 -19 12 -104 12 -65
0 -111 -4 -107 -9 3 -5 -1 -5 -9 -1 -17 11 -309 13 -309 3 0 -5 -5 -8 -11 -8
-5 0 -8 3 -5 8 2 4 -38 7 -90 7 -76 0 -93 -3 -89 -14 4 -11 3 -11 -10 -1 -17
14 -115 22 -115 9 0 -5 -5 -9 -11 -9 -5 0 -8 3 -5 8 2 4 -38 7 -90 7 -76 0
-93 -3 -89 -14 5 -12 3 -12 -11 0 -12 10 -63 13 -215 14 -109 0 -199 -4 -199
-8 0 -5 -6 -5 -12 0 -18 11 -68 11 -68 1 0 -5 -6 -6 -12 -1 -18 10 -88 12 -88
1 0 -4 -5 -8 -11 -8 -5 0 -8 3 -5 8 2 4 -38 7 -90 7 -76 0 -93 -3 -89 -14 4
-11 3 -11 -10 -1 -18 15 -95 21 -95 8 0 -6 -8 -4 -17 3 -15 12 -16 12 -10 -6
7 -19 6 -19 -7 -2 -14 18 -32 24 -21 8 3 -5 0 -13 -6 -17 -7 -4 -9 -3 -5 4 3
6 2 13 -4 17 -5 3 -10 1 -10 -5 0 -6 -5 -8 -11 -4 -7 4 -97 7 -200 8 -150 1
-189 -2 -189 -12 0 -7 -5 -10 -10 -7 -6 4 -8 9 -6 13 2 4 -9 7 -24 7 -16 1
-26 -3 -24 -7 3 -4 -2 -8 -11 -8 -9 0 -14 4 -11 9 3 4 -7 7 -22 5 -50 -6 -97
-6 -121 0 -16 4 -32 -1 -45 -12 -11 -9 -16 -12 -13 -6 12 20 -24 26 -40 7 -14
-17 -14 -17 -9 2 5 18 5 18 -7 3 -12 -15 -14 -15 -23 0 -9 13 -12 13 -19 2 -6
-9 -4 -11 6 -5 8 5 10 4 6 0 -13 -15 -39 -15 -34 -1 4 10 -4 13 -26 11 -17 -2
-33 -8 -35 -14 -3 -8 -8 -6 -16 5 -10 13 -15 14 -21 4 -6 -9 -4 -11 6 -5 8 5
10 4 6 0 -10 -11 -39 -16 -32 -5 3 4 -2 11 -11 14 -8 3 -12 2 -9 -4 8 -13 -1
-13 -28 2 -19 10 -20 9 -10 -3 10 -12 8 -15 -7 -15 -10 0 -17 3 -14 7 2 4 -3
9 -11 12 -10 4 -12 1 -8 -11 5 -14 3 -15 -8 -4 -7 6 -17 12 -22 12 -4 0 -5 -6
-1 -12 6 -10 5 -10 -7 -1 -12 10 -18 10 -29 0 -8 -7 -11 -8 -7 -1 4 7 -2 14
-14 17 -15 4 -18 2 -10 -7 7 -8 5 -12 -9 -12 -10 0 -17 3 -14 7 2 4 -3 9 -11
12 -10 4 -12 1 -8 -11 5 -14 3 -15 -7 -5 -11 10 -17 10 -29 0 -12 -10 -14 -9
-8 6 3 9 2 17 -3 17 -6 0 -10 -8 -11 -17 0 -12 -2 -13 -6 -5 -4 10 -8 10 -21
0 -9 -7 -13 -8 -9 -2 4 7 -2 14 -14 17 -15 4 -17 2 -10 -6 7 -9 1 -12 -20 -12
-20 -1 -28 3 -25 12 3 7 1 13 -3 13 -5 0 -12 -8 -15 -17 -5 -12 -9 -14 -18 -5
-7 7 -19 12 -27 12 -14 0 -14 -2 -1 -10 23 -15 -41 -6 -70 10 -22 12 -24 11
-13 -2 11 -12 9 -14 -7 -13 -11 1 -23 4 -26 8 -4 4 -13 2 -21 -4 -10 -9 -13
-7 -13 7 -1 17 -2 17 -13 4 -12 -15 -71 -24 -62 -9 6 9 -15 6 -32 -4 -6 -4
-14 -1 -16 5 -4 10 -8 9 -16 -2 -10 -13 -11 -13 -11 0 0 13 -1 13 -11 0 -8
-11 -12 -12 -16 -2 -2 6 -9 12 -14 12 -6 0 -7 -6 -3 -12 6 -10 5 -10 -7 -1
-12 10 -18 10 -29 0 -10 -10 -11 -9 -5 3 6 12 5 13 -5 3 -11 -10 -16 -9 -27 5
-12 16 -13 16 -7 0z m1174 -2 c0 -3 -4 -8 -10 -11 -5 -3 -10 -1 -10 4 0 6 5
11 10 11 6 0 10 -2 10 -4z m134 -4 c3 -5 -1 -9 -9 -9 -8 0 -12 4 -9 9 3 4 7 8
9 8 2 0 6 -4 9 -8z m156 2 c0 -8 -19 -13 -24 -6 -3 5 1 9 9 9 8 0 15 -2 15 -3z
m90 -2 c0 -5 -7 -9 -15 -9 -8 0 -12 4 -9 9 3 4 9 8 15 8 5 0 9 -4 9 -8z m190
2 c0 -8 -19 -13 -24 -6 -3 5 1 9 9 9 8 0 15 -2 15 -3z m410 -6 c0 -4 -4 -8 -9
-8 -6 0 -12 4 -15 8 -3 5 1 9 9 9 8 0 15 -4 15 -9z m115 -6 c-3 -3 -11 0 -18
7 -9 10 -8 11 6 5 10 -3 15 -9 12 -12z m445 6 c0 -4 -4 -8 -9 -8 -6 0 -12 4
-15 8 -3 5 1 9 9 9 8 0 15 -4 15 -9z m240 0 c0 -4 -4 -8 -9 -8 -6 0 -12 4 -15
8 -3 5 1 9 9 9 8 0 15 -4 15 -9z m115 -6 c-3 -3 -11 0 -18 7 -9 10 -8 11 6 5
10 -3 15 -9 12 -12z m205 6 c0 -4 -4 -8 -9 -8 -6 0 -12 4 -15 8 -3 5 1 9 9 9
8 0 15 -4 15 -9z m420 6 c0 -8 -19 -13 -24 -6 -3 5 1 9 9 9 8 0 15 -2 15 -3z
m90 0 c0 -8 -19 -13 -24 -6 -3 5 1 9 9 9 8 0 15 -2 15 -3z m244 -2 c3 -5 -1
-9 -9 -9 -8 0 -12 4 -9 9 3 4 7 8 9 8 2 0 6 -4 9 -8z m156 2 c0 -8 -19 -13
-24 -6 -3 5 1 9 9 9 8 0 15 -2 15 -3z m174 -3 c-8 -8 -34 -10 -38 -2 -3 4 6 7
19 7 14 0 22 -2 19 -5z m2877 -1004 c-13 -13 -26 -3 -16 12 3 6 11 8 17 5 6
-4 6 -10 -1 -17z m-6 -47 c3 -6 -1 -7 -9 -4 -18 7 -21 14 -7 14 6 0 13 -4 16
-10z m14 -531 c-12 -23 -21 -25 -12 -2 5 12 3 14 -8 8 -11 -7 -12 -6 -2 6 10
12 10 18 0 29 -6 8 -2 6 10 -4 18 -15 20 -23 12 -37z m-5 -247 c3 -5 -1 -9 -9
-9 -8 0 -12 4 -9 9 3 4 7 8 9 8 2 0 6 -4 9 -8z m10 -45 c-3 -8 -12 -14 -21
-14 -13 0 -13 2 3 14 10 7 19 13 21 13 1 0 0 -6 -3 -13z m6 -201 c0 -2 -7 -9
-15 -16 -13 -11 -14 -10 -9 4 5 14 24 23 24 12z m-8963 -491 c0 -8 -4 -12 -9
-9 -4 3 -8 9 -8 15 0 5 4 9 8 9 5 0 9 -7 9 -15z m3 -35 c0 -5 -2 -10 -4 -10
-3 0 -8 5 -11 10 -3 6 -1 10 4 10 6 0 11 -4 11 -10z m8955 -130 c3 -5 1 -10
-4 -10 -6 0 -11 5 -11 10 0 6 2 10 4 10 3 0 8 -4 11 -10z m-12 -41 c-8 -8 -13
-7 -18 2 -5 8 -4 10 3 5 7 -4 12 -2 12 5 0 7 3 9 7 6 4 -4 2 -12 -4 -18z
m-8948 -128 c3 -5 2 -12 -3 -15 -5 -3 -9 1 -9 9 0 17 3 19 12 6z m-2 -186 c4
-8 3 -16 -1 -19 -4 -3 -9 4 -9 15 -2 23 3 25 10 4z m3 -240 c-3 -23 -12 -26
-13 -5 -1 11 2 20 7 20 4 0 7 -7 6 -15z m-3 -880 c4 -8 3 -16 -1 -19 -4 -3 -9
4 -9 15 -2 23 3 25 10 4z m3 -240 c-3 -23 -12 -26 -13 -5 -1 11 2 20 7 20 4 0
7 -7 6 -15z m0 -240 c-3 -23 -12 -26 -13 -5 -1 11 2 20 7 20 4 0 7 -7 6 -15z
m0 -240 c-3 -23 -12 -26 -13 -5 -1 11 2 20 7 20 4 0 7 -7 6 -15z m0 -240 c-3
-23 -12 -26 -13 -5 -1 11 2 20 7 20 4 0 7 -7 6 -15z m4 -149 c0 -3 -4 -8 -10
-11 -5 -3 -10 -1 -10 4 0 6 5 11 10 11 6 0 10 -2 10 -4z m-7 -731 c4 -8 3 -16
-1 -19 -4 -3 -9 4 -9 15 -2 23 3 25 10 4z m3 -240 c-3 -23 -12 -26 -13 -5 -1
11 2 20 7 20 4 0 7 -7 6 -15z m4 -196 c0 -5 -4 -9 -8 -9 -5 0 -9 7 -9 15 0 8
4 12 9 9 4 -3 8 -9 8 -15z m-5 -98 c3 -5 2 -12 -3 -15 -5 -3 -9 1 -9 9 0 17 3
19 12 6z m2 -226 c0 -8 -4 -12 -9 -9 -4 3 -8 9 -8 15 0 5 4 9 8 9 5 0 9 -7 9
-15z m3 -35 c0 -5 -2 -10 -4 -10 -3 0 -8 5 -11 10 -3 6 -1 10 4 10 6 0 11 -4
11 -10z m8950 -246 c0 -8 -19 -13 -24 -6 -3 5 1 9 9 9 8 0 15 -2 15 -3z m-9
-501 c13 -16 12 -17 -3 -4 -10 7 -18 15 -18 17 0 8 8 3 21 -13z m9 -29 c0 -8
-19 -13 -24 -6 -3 5 1 9 9 9 8 0 15 -2 15 -3z m0 -86 c0 -6 -6 -5 -15 2 -8 7
-15 14 -15 16 0 2 7 1 15 -2 8 -4 15 -11 15 -16z m5 -58 c8 -13 -5 -13 -25 0
-13 8 -13 10 2 10 9 0 20 -4 23 -10z m-1 -53 c-3 -8 -12 -14 -21 -14 -13 0
-13 2 3 14 10 7 19 13 21 13 1 0 0 -6 -3 -13z m-9 -237 c3 -6 -1 -7 -9 -4 -18
7 -21 14 -7 14 6 0 13 -4 16 -10z m2 -35 c-4 -8 -2 -17 3 -20 5 -3 7 -12 3
-21 -5 -12 -7 -12 -18 3 -9 12 -10 22 -4 29 7 8 5 14 -3 17 -8 3 -6 6 6 6 12
1 16 -4 13 -14z m8 -75 c4 -6 2 -16 -3 -23 -6 -7 -9 -27 -7 -45 2 -27 0 -30
-12 -21 -9 8 -10 16 -4 22 6 6 7 17 2 26 -6 14 -7 27 -2 46 2 9 20 5 26 -5z
m-18 -227 c0 -7 -4 -13 -8 -13 -4 0 -9 6 -12 13 -3 8 0 14 7 14 7 0 13 -6 13
-14z m-2 -43 c-3 -5 -12 -10 -18 -10 -7 0 -6 4 3 10 19 12 23 12 15 0z m-11
-36 c3 -8 2 -12 -4 -9 -6 3 -10 10 -10 16 0 14 7 11 14 -7z m-74 -260 c0 4 5
4 10 1 7 -4 5 -14 -5 -28 -17 -24 -42 -31 -42 -11 0 11 4 11 14 2 11 -9 13 -6
9 15 -2 15 -8 32 -11 39 -4 7 1 4 9 -6 9 -11 16 -16 16 -12z m-23 -70 c-3 -3
-12 -4 -19 -1 -8 3 -5 6 6 6 11 1 17 -2 13 -5z m-70 -56 c-3 -8 -6 -5 -6 6 -1
11 2 17 5 13 3 -3 4 -12 1 -19z m-67 -148 c-28 -40 -50 -56 -51 -39 -1 8 0 19
1 24 1 6 3 15 3 22 0 7 4 10 9 7 4 -3 3 -14 -2 -25 -14 -25 2 -25 17 1 8 12 9
21 3 25 -17 10 -2 24 20 18 20 -5 20 -5 0 -33z m-65 -70 c3 -5 -1 -10 -9 -10
-9 0 -16 5 -16 10 0 6 4 10 9 10 6 0 13 -4 16 -10z m-73 -61 c-17 -15 -29 -29
-26 -31 2 -3 -3 -5 -11 -5 -8 0 -12 4 -9 9 3 4 1 8 -5 8 -5 0 -13 -4 -16 -10
-3 -5 -11 -10 -18 -10 -6 0 -2 7 10 15 12 9 26 15 30 14 21 -4 33 2 27 13 -4
6 -3 8 4 4 6 -3 13 -2 17 4 3 5 0 10 -7 10 -10 0 -9 3 2 9 30 20 32 -3 2 -30z
m-32 11 c0 -5 -5 -10 -11 -10 -5 0 -7 5 -4 10 3 6 8 10 11 10 2 0 4 -4 4 -10z
m-114 -123 c1 -9 -2 -15 -7 -11 -5 3 -7 9 -4 14 3 4 0 11 -5 13 -6 3 -5 4 1 3
7 -1 13 -10 15 -19z m-53 -20 c-2 -4 -3 -14 -3 -24 0 -15 -15 -10 -15 5 0 4
-4 12 -8 19 -4 7 -1 10 10 9 10 -2 17 -6 16 -9z m-253 -71 c0 -2 -7 -7 -16
-10 -8 -3 -12 -2 -9 4 6 10 25 14 25 6z m-6760 -30 c0 -2 -8 -10 -17 -17 -16
-13 -17 -12 -4 4 13 16 21 21 21 13z m351 -10 c5 3 9 1 9 -5 0 -5 -9 -9 -19
-8 -12 1 -17 6 -13 16 4 10 7 11 10 3 2 -7 8 -10 13 -6z m330 -3 c13 -16 12
-17 -3 -4 -10 7 -18 15 -18 17 0 8 8 3 21 -13z m5529 -3 c-6 -11 -16 -18 -21
-14 -6 3 -3 12 8 20 24 18 26 17 13 -6z m181 -3 c-10 -9 -11 -8 -5 6 3 10 9
15 12 12 3 -3 0 -11 -7 -18z m-5931 2 c0 -8 4 -8 14 0 10 9 15 8 19 -2 4 -10
-3 -13 -26 -12 -40 3 -39 3 -32 15 8 14 25 13 25 -1z m404 -10 c-3 -5 -10 -7
-15 -3 -5 3 -7 10 -3 15 3 5 10 7 15 3 5 -3 7 -10 3 -15z m220 5 c3 -8 2 -12
-4 -9 -6 3 -10 10 -10 16 0 14 7 11 14 -7z m413 -6 c-3 -8 -6 -5 -6 6 -1 11 2
17 5 13 3 -3 4 -12 1 -19z m1920 0 c-3 -8 -6 -5 -6 6 -1 11 2 17 5 13 3 -3 4
-12 1 -19z m2243 14 c0 -5 -7 -9 -15 -9 -8 0 -12 4 -9 9 3 4 9 8 15 8 5 0 9
-4 9 -8z m280 -2 c0 -5 -2 -10 -4 -10 -3 0 -8 5 -11 10 -3 6 -1 10 4 10 6 0
11 -4 11 -10z"/>
<path d="M9603 1625 c0 -8 4 -12 9 -9 5 3 6 10 3 15 -9 13 -12 11 -12 -6z"/>
<path d="M2595 9810 c-3 -6 1 -7 9 -4 18 7 21 14 7 14 -6 0 -13 -4 -16 -10z"/>
<path d="M6810 9809 c0 -5 5 -7 10 -4 6 3 10 8 10 11 0 2 -4 4 -10 4 -5 0 -10
-5 -10 -11z"/>
<path d="M6970 9809 c0 -5 5 -7 10 -4 6 3 10 8 10 11 0 2 -4 4 -10 4 -5 0 -10
-5 -10 -11z"/>
<path d="M9245 9519 c-4 -6 -5 -12 -2 -15 2 -3 7 2 10 11 7 17 1 20 -8 4z"/>
<path d="M9571 9000 c14 -31 19 -36 19 -24 0 6 -7 19 -16 30 -14 18 -14 18 -3
-6z"/>
<path d="M9594 8959 c-3 -6 -2 -15 3 -20 5 -5 9 -1 9 11 0 23 -2 24 -12 9z"/>
<path d="M9595 8880 c-3 -5 -1 -10 4 -10 6 0 11 5 11 10 0 6 -2 10 -4 10 -3 0
-8 -4 -11 -10z"/>
<path d="M9620 8640 c8 -5 20 -10 25 -10 6 0 3 5 -5 10 -8 5 -19 10 -25 10 -5
0 -3 -5 5 -10z"/>
<path d="M9600 8606 c0 -2 7 -6 15 -10 8 -3 15 -1 15 4 0 6 -7 10 -15 10 -8 0
-15 -2 -15 -4z"/>
<path d="M9615 8570 c3 -5 8 -10 11 -10 2 0 4 5 4 10 0 6 -5 10 -11 10 -5 0
-7 -4 -4 -10z"/>
<path d="M9607 8523 c-5 -12 -3 -26 9 -46 9 -16 11 -15 22 10 11 25 11 26 -2
10 -8 -11 -17 -14 -20 -8 -4 5 -2 12 4 16 5 3 10 10 10 16 0 11 -17 12 -23 2z"/>
<path d="M9605 8440 c-3 -6 1 -7 9 -4 18 7 21 14 7 14 -6 0 -13 -4 -16 -10z"/>
<path d="M9635 8379 c-4 -6 -5 -12 -2 -15 2 -3 7 2 10 11 7 17 1 20 -8 4z"/>
<path d="M9622 8323 c24 -26 37 -31 17 -7 -10 13 -10 17 1 24 9 5 5 8 -13 7
l-26 -2 21 -22z"/>
<path d="M9606 8301 c-3 -5 1 -11 9 -15 8 -3 15 -1 15 4 0 13 -18 22 -24 11z"/>
<path d="M9630 8179 c0 -5 -5 -7 -12 -3 -7 4 -8 3 -4 -5 6 -9 11 -9 22 0 17
14 18 19 4 19 -5 0 -10 -5 -10 -11z"/>
<path d="M9625 8120 c-3 -6 1 -7 9 -4 18 7 21 14 7 14 -6 0 -13 -4 -16 -10z"/>
<path d="M9627 8059 c7 -7 15 -10 18 -7 3 3 -2 9 -12 12 -14 6 -15 5 -6 -5z"/>
<path d="M9606 7883 c-3 -3 2 -12 10 -20 11 -12 12 -18 3 -29 -8 -10 -8 -14 0
-14 10 0 15 14 12 34 -1 4 3 13 8 20 7 8 5 12 -9 13 -10 1 -21 -1 -24 -4z"/>
<path d="M9621 7586 c-9 -10 -8 -15 3 -19 11 -4 13 -1 9 10 -5 12 -3 14 7 8 9
-5 11 -4 6 3 -9 15 -11 15 -25 -2z"/>
<path d="M645 7580 c3 -5 8 -10 11 -10 2 0 4 5 4 10 0 6 -5 10 -11 10 -5 0 -7
-4 -4 -10z"/>
<path d="M643 7515 c0 -8 4 -12 9 -9 5 3 6 10 3 15 -9 13 -12 11 -12 -6z"/>
<path d="M9636 7478 c3 -4 0 -8 -5 -8 -15 0 -14 -13 5 -36 15 -19 15 -19 5 1
-7 15 -6 24 5 36 12 14 12 16 -1 16 -8 0 -12 -4 -9 -9z"/>
<path d="M645 7160 c3 -5 8 -10 11 -10 2 0 4 5 4 10 0 6 -5 10 -11 10 -5 0 -7
-4 -4 -10z"/>
<path d="M9616 7001 c-3 -4 6 -13 19 -19 30 -14 31 -12 5 10 -10 10 -22 14
-24 9z"/>
<path d="M9624 6936 c1 -23 5 -32 14 -29 9 4 10 9 1 19 -6 7 -8 18 -5 23 4 5
3 12 -2 15 -5 3 -8 -10 -8 -28z"/>
<path d="M9626 6836 c-17 -27 -9 -40 14 -25 11 6 11 9 2 9 -10 0 -10 5 -2 20
15 28 6 25 -14 -4z"/>
<path d="M9626 6596 c-17 -27 -9 -40 14 -25 11 6 11 9 2 9 -10 0 -10 5 -2 20
15 28 6 25 -14 -4z"/>
<path d="M9616 6361 c-3 -4 6 -13 19 -19 30 -14 31 -12 5 10 -10 10 -22 14
-24 9z"/>
<path d="M9624 6296 c1 -23 5 -32 14 -29 9 4 10 9 1 19 -6 7 -8 18 -5 23 4 5
3 12 -2 15 -5 3 -8 -10 -8 -28z"/>
<path d="M9626 6196 c-17 -27 -9 -40 14 -25 11 6 11 9 2 9 -10 0 -10 5 -2 20
15 28 6 25 -14 -4z"/>
<path d="M9626 5956 c-17 -27 -9 -40 14 -25 11 6 11 9 2 9 -10 0 -10 5 -2 20
15 28 6 25 -14 -4z"/>
<path d="M9626 5556 c-17 -27 -9 -40 14 -25 11 6 11 9 2 9 -10 0 -10 5 -2 20
15 28 6 25 -14 -4z"/>
<path d="M9626 5316 c-17 -27 -9 -40 14 -25 11 6 11 9 2 9 -10 0 -10 5 -2 20
15 28 6 25 -14 -4z"/>
<path d="M9616 5081 c-3 -4 6 -13 19 -19 30 -14 31 -12 5 10 -10 10 -22 14
-24 9z"/>
<path d="M9624 5016 c1 -23 5 -32 14 -29 9 4 10 9 1 19 -6 7 -8 18 -5 23 4 5
3 12 -2 15 -5 3 -8 -10 -8 -28z"/>
<path d="M9626 4916 c-17 -27 -9 -40 14 -25 11 6 11 9 2 9 -10 0 -10 5 -2 20
15 28 6 25 -14 -4z"/>
<path d="M9626 4676 c-17 -27 -9 -40 14 -25 11 6 11 9 2 9 -10 0 -10 5 -2 20
15 28 6 25 -14 -4z"/>
<path d="M9626 4276 c-17 -27 -9 -40 14 -25 11 6 11 9 2 9 -10 0 -10 5 -2 20
15 28 6 25 -14 -4z"/>
<path d="M9626 4036 c-17 -27 -9 -40 14 -25 11 6 11 9 2 9 -10 0 -10 5 -2 20
15 28 6 25 -14 -4z"/>
<path d="M9616 3801 c-3 -4 6 -13 19 -19 30 -14 31 -12 5 10 -10 10 -22 14
-24 9z"/>
<path d="M9624 3736 c1 -23 5 -32 14 -29 9 4 10 9 1 19 -6 7 -8 18 -5 23 4 5
3 12 -2 15 -5 3 -8 -10 -8 -28z"/>
<path d="M9626 3636 c-17 -27 -9 -40 14 -25 11 6 11 9 2 9 -10 0 -10 5 -2 20
15 28 6 25 -14 -4z"/>
<path d="M9626 3396 c-17 -27 -9 -40 14 -25 11 6 11 9 2 9 -10 0 -10 5 -2 20
15 28 6 25 -14 -4z"/>
<path d="M645 2920 c3 -5 8 -10 11 -10 2 0 4 5 4 10 0 6 -5 10 -11 10 -5 0 -7
-4 -4 -10z"/>
<path d="M645 2620 c3 -5 8 -10 11 -10 2 0 4 5 4 10 0 6 -5 10 -11 10 -5 0 -7
-4 -4 -10z"/>
<path d="M9625 2401 c-3 -5 -2 -12 3 -15 5 -3 9 1 9 9 0 17 -3 19 -12 6z"/>
<path d="M9626 2327 c3 -10 9 -15 12 -12 3 3 0 11 -7 18 -10 9 -11 8 -5 -6z"/>
<path d="M9630 1939 c0 -5 5 -7 10 -4 6 3 10 8 10 11 0 2 -4 4 -10 4 -5 0 -10
-5 -10 -11z"/>
<path d="M9635 1819 c-4 -6 -5 -12 -2 -15 2 -3 7 2 10 11 7 17 1 20 -8 4z"/>
<path d="M9630 1779 c0 -5 5 -7 10 -4 6 3 10 8 10 11 0 2 -4 4 -10 4 -5 0 -10
-5 -10 -11z"/>
<path d="M9566 1161 c8 -8 43 -8 38 0 -2 4 -13 7 -24 6 -10 -1 -17 -3 -14 -6z"/>
<path d="M9525 1111 c-3 -5 -1 -12 4 -15 5 -3 11 1 15 9 6 16 -9 21 -19 6z"/>
<path d="M9555 1099 c-4 -6 -5 -12 -2 -15 2 -3 7 2 10 11 7 17 1 20 -8 4z"/>
<path d="M9455 899 c-4 -6 -5 -12 -2 -15 2 -3 7 2 10 11 7 17 1 20 -8 4z"/>
<path d="M9150 598 c0 -11 12 -10 30 2 12 7 10 9 -8 7 -12 0 -22 -5 -22 -9z"/>
<path d="M8804 451 c-3 -3 -10 -6 -15 -6 -5 0 -9 -3 -9 -7 0 -29 2 -31 11 -16
5 9 16 15 23 12 7 -3 16 1 19 9 5 13 -17 20 -29 8z"/>
<path d="M8856 445 c4 -8 8 -15 10 -15 2 0 4 7 4 15 0 8 -4 15 -10 15 -5 0 -7
-7 -4 -15z"/>
<path d="M1477 429 c7 -7 15 -10 18 -7 3 3 -2 9 -12 12 -14 6 -15 5 -6 -5z"/>
<path d="M1580 421 c0 -5 7 -12 16 -15 14 -5 15 -4 4 9 -14 17 -20 19 -20 6z"/>
<path d="M8551 416 c-9 -11 -9 -16 0 -22 7 -4 9 -3 5 4 -3 5 0 12 6 15 7 2 10
7 7 11 -3 4 -12 0 -18 -8z"/>
<path d="M8663 414 c0 -9 5 -10 18 -3 13 7 19 5 23 -9 4 -14 5 -14 3 2 -2 22
-44 31 -44 10z"/>
<path d="M1710 411 c0 -6 4 -13 10 -16 6 -3 7 1 4 9 -7 18 -14 21 -14 7z"/>
<path d="M2594 409 c-3 -6 -3 -13 0 -16 3 -4 6 -1 6 6 0 7 5 9 10 6 6 -4 7
-11 4 -17 -4 -7 -2 -8 4 -4 7 4 12 11 12 16 0 13 -29 20 -36 9z"/>
<path d="M2734 409 c-9 -16 2 -22 21 -11 15 8 16 10 1 15 -8 3 -18 2 -22 -4z"/>
<path d="M2785 409 c-4 -5 -4 -13 -1 -16 3 -4 6 0 6 8 0 11 2 11 10 -1 6 -9
10 -10 10 -3 0 17 -17 25 -25 12z"/>
<path d="M3596 411 c-4 -6 -12 -9 -17 -6 -5 4 -9 2 -9 -3 0 -6 7 -13 16 -16 8
-3 12 -2 9 3 -3 5 -1 12 5 16 9 6 15 -8 11 -29 -1 -5 5 -4 13 4 9 7 16 18 15
24 0 6 -3 6 -6 -2 -4 -10 -8 -9 -17 4 -9 12 -15 14 -20 5z"/>
<path d="M3715 410 c-4 -6 -11 -7 -17 -4 -7 4 -8 2 -4 -4 10 -16 23 -15 30 3
6 17 0 20 -9 5z"/>
<path d="M3797 413 c-12 -12 -7 -25 7 -20 7 3 19 0 26 -6 10 -9 11 -9 5 2 -6
11 -4 13 8 8 9 -3 19 -2 21 2 3 5 -5 7 -17 7 -12 -1 -27 1 -33 6 -6 4 -14 5
-17 1z"/>
<path d="M4048 398 c2 -10 6 -18 7 -18 1 0 5 8 7 18 3 11 0 19 -7 19 -7 0 -10
-8 -7 -19z"/>
<path d="M4095 410 c-3 -5 -1 -11 5 -15 5 -3 10 -3 10 1 0 3 6 1 14 -5 12 -10
14 -9 12 5 -3 18 -32 28 -41 14z"/>
<path d="M4396 411 c-4 -6 -12 -9 -17 -6 -5 4 -9 2 -9 -3 0 -6 7 -13 16 -16 8
-3 12 -2 9 3 -3 5 -1 12 5 16 9 6 15 -8 11 -29 -1 -5 5 -4 13 4 9 7 16 18 15
24 0 6 -3 6 -6 -2 -4 -10 -8 -9 -17 4 -9 12 -15 14 -20 5z"/>
<path d="M4667 399 c6 -23 9 -24 16 -5 3 8 0 17 -7 19 -10 4 -12 -1 -9 -14z"/>
<path d="M5008 398 c2 -10 6 -18 7 -18 1 0 5 8 7 18 3 11 0 19 -7 19 -7 0 -10
-8 -7 -19z"/>
<path d="M5055 410 c-3 -5 -1 -11 5 -15 5 -3 10 -3 10 1 0 3 6 1 14 -5 12 -10
14 -9 12 5 -3 18 -32 28 -41 14z"/>
<path d="M5196 411 c-4 -6 -12 -9 -17 -6 -5 4 -9 2 -9 -3 0 -6 7 -13 16 -16 8
-3 12 -2 9 3 -3 5 -1 12 5 16 9 6 15 -8 11 -29 -1 -5 5 -4 13 4 9 7 16 18 15
24 0 6 -3 6 -6 -2 -4 -10 -8 -9 -17 4 -9 12 -15 14 -20 5z"/>
<path d="M5516 411 c-4 -6 -12 -9 -17 -6 -5 4 -9 2 -9 -3 0 -6 7 -13 16 -16 8
-3 12 -2 9 3 -3 5 -1 12 5 16 9 6 15 -8 11 -29 -1 -5 5 -4 13 4 9 7 16 18 15
24 0 6 -3 6 -6 -2 -4 -10 -8 -9 -17 4 -9 12 -15 14 -20 5z"/>
<path d="M5635 410 c-4 -6 -11 -7 -17 -4 -7 4 -8 2 -4 -4 10 -16 23 -15 30 3
6 17 0 20 -9 5z"/>
<path d="M5717 413 c-12 -12 -7 -25 7 -20 7 3 19 0 26 -6 10 -9 11 -9 5 2 -6
11 -4 13 8 8 9 -3 19 -2 21 2 3 5 -5 7 -17 7 -12 -1 -27 1 -33 6 -6 4 -14 5
-17 1z"/>
<path d="M5968 398 c2 -10 6 -18 7 -18 1 0 5 8 7 18 3 11 0 19 -7 19 -7 0 -10
-8 -7 -19z"/>
<path d="M6015 410 c-3 -5 -1 -11 5 -15 5 -3 10 -3 10 1 0 3 6 1 14 -5 12 -10
14 -9 12 5 -3 18 -32 28 -41 14z"/>
<path d="M6316 411 c-4 -6 -12 -9 -17 -6 -5 4 -9 2 -9 -3 0 -6 7 -13 16 -16 8
-3 12 -2 9 3 -3 5 -1 12 5 16 9 6 15 -8 11 -29 -1 -5 5 -4 13 4 9 7 16 18 15
24 0 6 -3 6 -6 -2 -4 -10 -8 -9 -17 4 -9 12 -15 14 -20 5z"/>
<path d="M6587 399 c6 -23 9 -24 16 -5 3 8 0 17 -7 19 -10 4 -12 -1 -9 -14z"/>
<path d="M6928 398 c2 -10 6 -18 7 -18 1 0 5 8 7 18 3 11 0 19 -7 19 -7 0 -10
-8 -7 -19z"/>
<path d="M7039 418 c-4 -19 -9 -51 -6 -47 1 2 8 11 15 21 9 11 10 18 2 23 -5
3 -10 5 -11 3z"/>
<path d="M7737 403 c4 -11 8 -12 13 -3 6 9 9 9 13 1 4 -8 5 -8 3 0 -1 7 -9 13
-18 15 -11 1 -15 -3 -11 -13z"/>
<path d="M2960 398 c0 -4 4 -8 9 -8 6 0 12 4 15 8 3 5 -1 9 -9 9 -8 0 -15 -4
-15 -9z"/>
<path d="M2996 393 c-6 -14 -5 -15 5 -6 7 7 10 15 7 18 -3 3 -9 -2 -12 -12z"/>
<path d="M3160 386 c-12 -20 -12 -20 6 -4 13 11 24 14 35 8 10 -6 16 -5 16 3
0 21 -43 16 -57 -7z"/>
<path d="M3230 401 c0 -5 8 -8 18 -6 9 1 23 -2 30 -8 8 -6 12 -6 12 2 0 6 -3
11 -7 12 -5 0 -18 2 -30 5 -13 2 -23 0 -23 -5z"/>
<path d="M3300 401 c0 -6 4 -13 10 -16 6 -3 7 1 4 9 -7 18 -14 21 -14 7z"/>
<path d="M3336 393 c-6 -14 -5 -15 5 -6 7 7 10 15 7 18 -3 3 -9 -2 -12 -12z"/>
<path d="M3419 406 c0 -1 -2 -9 -4 -18 -3 -14 0 -15 16 -5 23 14 24 24 4 24
-8 0 -15 -1 -16 -1z"/>
<path d="M3670 401 c0 -6 4 -13 10 -16 6 -3 7 1 4 9 -7 18 -14 21 -14 7z"/>
<path d="M3766 393 c-6 -14 -5 -15 5 -6 7 7 10 15 7 18 -3 3 -9 -2 -12 -12z"/>
<path d="M3877 395 c-4 -8 -3 -16 1 -19 4 -3 9 4 9 15 2 23 -3 25 -10 4z"/>
<path d="M3900 398 c0 -4 10 -6 23 -4 12 2 27 0 33 -5 6 -5 11 -4 11 4 0 8
-13 13 -34 13 -18 0 -33 -4 -33 -8z"/>
<path d="M4176 393 c-6 -14 -5 -15 5 -6 7 7 10 15 7 18 -3 3 -9 -2 -12 -12z"/>
<path d="M4470 399 c0 -6 4 -8 9 -5 5 4 11 1 13 -6 3 -8 6 -7 10 3 4 10 -1 15
-13 16 -10 1 -19 -3 -19 -8z"/>
<path d="M4516 395 c-9 -26 -7 -32 5 -12 6 10 9 21 6 23 -2 3 -7 -2 -11 -11z"/>
<path d="M4547 393 c3 -7 9 -10 14 -7 14 8 11 21 -5 21 -8 0 -12 -6 -9 -14z"/>
<path d="M4706 398 c3 -4 9 -8 15 -8 5 0 9 4 9 8 0 5 -7 9 -15 9 -8 0 -12 -4
-9 -9z"/>
<path d="M4740 401 c0 -5 7 -12 16 -15 14 -5 15 -4 4 9 -14 17 -20 19 -20 6z"/>
<path d="M4837 395 c-4 -8 -3 -16 1 -19 4 -3 9 4 9 15 2 23 -3 25 -10 4z"/>
<path d="M4860 398 c0 -4 10 -6 23 -4 12 2 27 0 33 -5 6 -5 11 -4 11 4 0 8
-13 13 -34 13 -18 0 -33 -4 -33 -8z"/>
<path d="M5113 386 c-1 -12 1 -15 4 -8 3 6 8 10 12 8 4 -3 8 1 8 8 0 22 -23
14 -24 -8z"/>
<path d="M5339 406 c0 -1 -2 -9 -4 -18 -3 -14 0 -15 16 -5 23 14 24 24 4 24
-8 0 -15 -1 -16 -1z"/>
<path d="M5590 401 c0 -6 4 -13 10 -16 6 -3 7 1 4 9 -7 18 -14 21 -14 7z"/>
<path d="M5686 393 c-6 -14 -5 -15 5 -6 7 7 10 15 7 18 -3 3 -9 -2 -12 -12z"/>
<path d="M5797 395 c-4 -8 -3 -16 1 -19 4 -3 9 4 9 15 2 23 -3 25 -10 4z"/>
<path d="M5820 398 c0 -4 10 -6 23 -4 12 2 27 0 33 -5 6 -5 11 -4 11 4 0 8
-13 13 -34 13 -18 0 -33 -4 -33 -8z"/>
<path d="M6096 393 c-6 -14 -5 -15 5 -6 7 7 10 15 7 18 -3 3 -9 -2 -12 -12z"/>
<path d="M6390 399 c0 -6 4 -8 9 -5 5 4 11 1 13 -6 3 -8 6 -7 10 3 4 10 -1 15
-13 16 -10 1 -19 -3 -19 -8z"/>
<path d="M6436 395 c-9 -26 -7 -32 5 -12 6 10 9 21 6 23 -2 3 -7 -2 -11 -11z"/>
<path d="M6467 393 c3 -7 9 -10 14 -7 14 8 11 21 -5 21 -8 0 -12 -6 -9 -14z"/>
<path d="M6626 398 c3 -4 9 -8 15 -8 5 0 9 4 9 8 0 5 -7 9 -15 9 -8 0 -12 -4
-9 -9z"/>
<path d="M6660 401 c0 -5 7 -12 16 -15 14 -5 15 -4 4 9 -14 17 -20 19 -20 6z"/>
<path d="M6757 395 c-4 -8 -3 -16 1 -19 4 -3 9 4 9 15 2 23 -3 25 -10 4z"/>
<path d="M6780 398 c0 -4 10 -6 23 -4 12 2 27 0 33 -5 6 -5 11 -4 11 4 0 8
-13 13 -34 13 -18 0 -33 -4 -33 -8z"/>
<path d="M7000 401 c0 -6 4 -13 10 -16 6 -3 7 1 4 9 -7 18 -14 21 -14 7z"/>
<path d="M7080 400 c5 -3 29 -6 53 -5 23 0 46 -4 50 -10 5 -6 7 -5 5 4 -3 11
-21 15 -62 16 -31 1 -52 -1 -46 -5z"/>
<path d="M7290 398 c0 -3 9 -6 20 -5 11 1 20 5 20 9 0 3 -9 6 -20 5 -11 -1
-20 -5 -20 -9z"/>
<path d="M7390 400 c0 -5 5 -10 10 -10 6 0 10 5 10 10 0 6 -4 10 -10 10 -5 0
-10 -4 -10 -10z"/>
<path d="M7450 400 c0 -5 5 -10 10 -10 6 0 10 5 10 10 0 6 -4 10 -10 10 -5 0
-10 -4 -10 -10z"/>
<path d="M2668 383 c6 -2 18 -2 25 0 6 3 1 5 -13 5 -14 0 -19 -2 -12 -5z"/>
<path d="M3110 379 c0 -5 5 -7 10 -4 6 3 10 8 10 11 0 2 -4 4 -10 4 -5 0 -10
-5 -10 -11z"/>
<path d="M4070 379 c0 -5 5 -7 10 -4 6 3 10 8 10 11 0 2 -4 4 -10 4 -5 0 -10
-5 -10 -11z"/>
<path d="M5030 379 c0 -5 5 -7 10 -4 6 3 10 8 10 11 0 2 -4 4 -10 4 -5 0 -10
-5 -10 -11z"/>
<path d="M5990 379 c0 -5 5 -7 10 -4 6 3 10 8 10 11 0 2 -4 4 -10 4 -5 0 -10
-5 -10 -11z"/>
<path d="M6950 379 c0 -5 5 -7 10 -4 6 3 10 8 10 11 0 2 -4 4 -10 4 -5 0 -10
-5 -10 -11z"/>
<path d="M7638 383 c7 -3 16 -2 19 1 4 3 -2 6 -13 5 -11 0 -14 -3 -6 -6z"/>
</g>
</svg>
